<svg width="24" height="20" viewBox="0 0 24 20" fill="none" xmlns="http://www.w3.org/2000/svg">
<mask id="mask0_28_153" style="mask-type:luminance" maskUnits="userSpaceOnUse" x="0" y="0" width="24" height="20">
<path d="M0.150024 0H23.1226V20H0.150024V0Z" fill="white"/>
</mask>
<g mask="url(#mask0_28_153)">
<path d="M11.6276 19.9956C11.4738 19.9944 11.374 19.9078 11.3512 19.8871L2.46915 11.0145C0.355179 9.10341 -0.371781 6.19057 0.613445 3.77237C1.76157 0.95427 4.66035 0.218868 4.85545 0.173218C7.34619 -0.407412 10.008 0.674429 11.6304 2.88126C13.2529 0.674429 15.9149 -0.407412 18.405 0.173218C18.5304 0.202609 21.4858 0.920814 22.6474 3.77237C23.6401 6.20964 22.8941 9.11874 20.7914 11.0145L11.9096 19.8871C11.8871 19.9074 11.7849 19.9966 11.6276 19.9956ZM5.01304 0.848274C4.84889 0.886733 2.27435 1.53365 1.25598 4.03377C0.372063 6.20402 1.04868 8.80481 2.94003 10.5054L2.95347 10.5179L11.6304 19.1858L20.3136 10.5117L20.3205 10.5054C22.2118 8.80481 22.8888 6.20402 22.0045 4.03377C20.9768 1.51051 18.3585 0.874226 18.2475 0.848274C15.8874 0.297973 13.3463 1.43641 11.9234 3.68076L11.6304 4.1432L11.3371 3.68076C9.91447 1.42296 7.35213 0.301413 5.01304 0.848274Z" fill="black"/>
</g>
</svg>
