<svg width="17" height="20" viewBox="0 0 17 20" fill="none" xmlns="http://www.w3.org/2000/svg">
<mask id="mask0_28_169" style="mask-type:luminance" maskUnits="userSpaceOnUse" x="3" y="0" width="11" height="11">
<path d="M3.04163 0H13.1083V10.0333H3.04163V0Z" fill="white"/>
</mask>
<g mask="url(#mask0_28_169)">
<path d="M8.07362 10.0312C8.15565 10.0312 8.23768 10.0292 8.31971 10.025C8.40174 10.0211 8.48351 10.0151 8.56528 10.007C8.64705 9.99896 8.72856 9.9888 8.80981 9.97682C8.89106 9.96484 8.97179 9.95078 9.05226 9.93464C9.13299 9.91875 9.21294 9.90078 9.29263 9.88073C9.37231 9.86068 9.45148 9.8388 9.53013 9.8151C9.60851 9.79115 9.68664 9.76536 9.76398 9.73776C9.84106 9.71016 9.91789 9.68073 9.99367 9.64922C10.0694 9.61771 10.1444 9.58437 10.2187 9.54948C10.2931 9.51432 10.3663 9.47734 10.4387 9.43854C10.5111 9.4 10.5827 9.35937 10.653 9.31719C10.7234 9.275 10.7929 9.23125 10.8611 9.18542C10.9293 9.13984 10.9965 9.09271 11.0624 9.04375C11.1283 8.99479 11.1931 8.94427 11.2567 8.89219C11.32 8.8401 11.3822 8.78646 11.4431 8.73125C11.5038 8.6763 11.5635 8.61953 11.6215 8.56146C11.6796 8.50338 11.7361 8.44401 11.7913 8.38307C11.8465 8.3224 11.8999 8.26016 11.9523 8.19661C12.0043 8.13307 12.0546 8.06849 12.1036 8.0026C12.1525 7.93646 12.1999 7.86953 12.2455 7.80104C12.2911 7.73281 12.3351 7.66354 12.3773 7.59323C12.4194 7.52266 12.4598 7.4513 12.4986 7.37891C12.5374 7.30651 12.5741 7.23307 12.6093 7.15885C12.6444 7.08463 12.6778 7.00963 12.709 6.93359C12.7405 6.85781 12.77 6.78125 12.7978 6.70391C12.8254 6.62656 12.8512 6.5487 12.8749 6.47005C12.8989 6.39141 12.9208 6.3125 12.9408 6.23281C12.9606 6.15312 12.9786 6.07292 12.9947 5.99245C13.0106 5.91198 13.0247 5.83099 13.0366 5.74974C13.0489 5.66849 13.0588 5.58698 13.0668 5.50547C13.0749 5.4237 13.0809 5.34167 13.0851 5.2599C13.089 5.17786 13.0911 5.09557 13.0911 5.01354C13.0911 4.93151 13.089 4.84948 13.0851 4.76745C13.0809 4.68542 13.0749 4.60338 13.0668 4.52187C13.0588 4.4401 13.0489 4.35859 13.0366 4.27734C13.0247 4.19609 13.0106 4.11536 12.9947 4.03464C12.9786 3.95417 12.9606 3.87396 12.9408 3.79453C12.9208 3.71484 12.8989 3.63568 12.8749 3.55703C12.8512 3.47839 12.8254 3.40052 12.7978 3.32318C12.7702 3.24583 12.7405 3.16927 12.709 3.09349C12.6778 3.01771 12.6444 2.94245 12.6093 2.86823C12.5741 2.79401 12.5374 2.72083 12.4986 2.64844C12.4598 2.57604 12.4194 2.50443 12.3773 2.43411C12.3351 2.36354 12.2911 2.29427 12.2455 2.22604C12.1999 2.15781 12.1525 2.09062 12.1036 2.02474C12.0549 1.95859 12.0043 1.89401 11.9523 1.83047C11.9002 1.76693 11.8465 1.70495 11.7913 1.64401C11.7361 1.58307 11.6796 1.5237 11.6215 1.46562C11.5635 1.40755 11.5041 1.35104 11.4431 1.29583C11.3822 1.24062 11.3202 1.18698 11.2567 1.1349C11.1931 1.08281 11.1286 1.03229 11.0624 0.983594C10.9965 0.934635 10.9293 0.88724 10.8611 0.841667C10.7929 0.796094 10.7236 0.752083 10.653 0.709896C10.5827 0.667708 10.5114 0.627344 10.4387 0.588542C10.3663 0.54974 10.2931 0.513021 10.2189 0.477865C10.1447 0.442708 10.0694 0.409375 9.99367 0.377865C9.91789 0.346615 9.84132 0.316927 9.76398 0.289323C9.68664 0.261719 9.60877 0.235937 9.53013 0.211979C9.45148 0.188281 9.37231 0.166406 9.29263 0.146354C9.2132 0.126563 9.13299 0.108594 9.05252 0.0924479C8.97205 0.076302 8.89106 0.0625 8.80981 0.0502604C8.72856 0.0382813 8.64705 0.028125 8.56528 0.0203125C8.48377 0.0122396 8.40174 0.0059896 8.31971 0.00208333C8.23768 -0.00208333 8.15565 -0.00390625 8.07362 -0.00390625C7.99158 -0.00390625 7.90929 -0.00208333 7.82752 0.00208333C7.74549 0.0059896 7.66346 0.0122396 7.58169 0.0200521C7.50018 0.028125 7.41867 0.0382813 7.33742 0.0502604C7.25617 0.0622396 7.17518 0.076302 7.09471 0.0924479C7.01424 0.108333 6.93403 0.126302 6.85435 0.146354C6.77466 0.166406 6.69575 0.188281 6.61711 0.211979C6.53846 0.235937 6.4606 0.261719 6.38325 0.289323C6.30591 0.316927 6.22935 0.346615 6.15356 0.377865C6.07752 0.409375 6.00252 0.442708 5.9283 0.477604C5.85409 0.51276 5.78065 0.54974 5.70825 0.588542C5.63586 0.627083 5.5645 0.667708 5.49393 0.709896C5.42362 0.752083 5.35435 0.795833 5.28612 0.841667C5.21763 0.88724 5.1507 0.934375 5.08455 0.983333C5.01867 1.03229 4.95409 1.08281 4.89054 1.1349C4.827 1.18698 4.76476 1.24062 4.70409 1.29583C4.64315 1.35078 4.58377 1.40755 4.5257 1.46562C4.46763 1.5237 4.41086 1.58307 4.35591 1.64401C4.3007 1.70469 4.24705 1.76693 4.19497 1.83047C4.14289 1.89375 4.09237 1.95859 4.04341 2.02448C3.99445 2.09036 3.94731 2.15755 3.90174 2.22578C3.85591 2.29427 3.81216 2.36354 3.76997 2.43385C3.72752 2.50443 3.68716 2.57578 3.64836 2.64818C3.60981 2.72057 3.57284 2.79401 3.53768 2.86823C3.50252 2.94245 3.46945 3.01745 3.43794 3.09323C3.40643 3.16927 3.377 3.24583 3.3494 3.32318C3.32153 3.40052 3.29601 3.47839 3.27205 3.55703C3.2481 3.63542 3.22622 3.71458 3.20643 3.79427C3.18638 3.87396 3.16841 3.95417 3.15226 4.03464C3.13638 4.1151 3.12231 4.19609 3.11034 4.27734C3.09836 4.35833 3.0882 4.43984 3.08013 4.52161C3.07205 4.60338 3.06606 4.68516 3.0619 4.76719C3.05799 4.84922 3.05591 4.93125 3.05591 5.01354C3.05617 5.09557 3.05825 5.1776 3.06216 5.25963C3.06632 5.34167 3.07257 5.42344 3.08065 5.50521C3.08872 5.58672 3.09888 5.66823 3.11086 5.74948C3.1231 5.83073 3.13716 5.91146 3.1533 5.99193C3.16945 6.0724 3.18742 6.1526 3.20747 6.23203C3.22752 6.31172 3.2494 6.39088 3.27336 6.46927C3.29705 6.54792 3.32284 6.62578 3.3507 6.70312C3.3783 6.78047 3.40799 6.85703 3.43924 6.93281C3.47075 7.00859 3.50409 7.08359 3.53924 7.15781C3.5744 7.23203 3.61138 7.30521 3.64992 7.3776C3.68872 7.45 3.72935 7.52135 3.77153 7.59193C3.81372 7.66224 3.85773 7.73151 3.9033 7.79974C3.94888 7.86797 3.99627 7.93516 4.04497 8.00104C4.09393 8.06693 4.14445 8.13177 4.19653 8.19505C4.24862 8.25859 4.30226 8.32057 4.35747 8.38151C4.41242 8.44245 4.46919 8.50182 4.52726 8.5599C4.58534 8.61797 4.64471 8.67448 4.70539 8.72969C4.76632 8.78463 4.8283 8.83828 4.89185 8.89036C4.95539 8.94245 5.01997 8.99297 5.08586 9.04193C5.15174 9.09089 5.21893 9.13802 5.28716 9.18385C5.35539 9.22943 5.42466 9.27344 5.49523 9.31562C5.56554 9.35781 5.6369 9.39818 5.70929 9.43698C5.78169 9.47578 5.85513 9.51276 5.92909 9.54766C6.0033 9.58281 6.0783 9.61615 6.15435 9.64766C6.23013 9.67917 6.30669 9.70859 6.38377 9.73646C6.46112 9.76406 6.53898 9.78984 6.61763 9.8138C6.69601 9.83776 6.77518 9.85963 6.85487 9.87969C6.93455 9.89974 7.0145 9.91771 7.09497 9.93385C7.17544 9.95 7.25643 9.96406 7.33768 9.97604C7.41867 9.98828 7.50018 9.99844 7.58195 10.0065C7.66346 10.0146 7.74549 10.0208 7.82726 10.0247C7.90929 10.0289 7.99132 10.031 8.07362 10.0312ZM8.07362 0.863802C8.20955 0.863802 8.34497 0.870573 8.48039 0.883854C8.61554 0.897135 8.74992 0.916927 8.88325 0.94349C9.01632 0.970052 9.1481 1.00312 9.2783 1.04245C9.40825 1.08203 9.53612 1.1276 9.66164 1.17969C9.78716 1.23177 9.90981 1.28958 10.0299 1.35391C10.1497 1.41797 10.2661 1.48776 10.3791 1.56302C10.4921 1.63854 10.6012 1.71953 10.7062 1.80573C10.8114 1.89193 10.9119 1.98307 11.008 2.07917C11.1041 2.17526 11.1952 2.27604 11.2814 2.38099C11.3676 2.48594 11.4486 2.59505 11.5241 2.70807C11.5997 2.82109 11.6694 2.9375 11.7335 3.05729C11.7976 3.17734 11.8556 3.3 11.9077 3.42552C11.9596 3.55104 12.0054 3.67891 12.0447 3.80911C12.0843 3.93906 12.1174 4.07083 12.1437 4.20417C12.1702 4.3375 12.1903 4.47161 12.2036 4.60703C12.2168 4.74219 12.2236 4.87786 12.2236 5.0138C12.2236 5.14974 12.2168 5.28516 12.2036 5.42057C12.1903 5.55573 12.1702 5.6901 12.1437 5.82344C12.1174 5.95651 12.0843 6.08828 12.0447 6.21849C12.0054 6.34844 11.9596 6.4763 11.9077 6.60182C11.8556 6.72734 11.7976 6.85 11.7335 6.97005C11.6694 7.08984 11.5997 7.20625 11.5241 7.31927C11.4486 7.43229 11.3676 7.54141 11.2814 7.64635C11.1952 7.75156 11.1041 7.85208 11.008 7.94818C10.9119 8.04427 10.8114 8.13542 10.7062 8.22161C10.6012 8.30781 10.4921 8.3888 10.3791 8.46432C10.2661 8.53984 10.1497 8.60963 10.0299 8.6737C9.90981 8.73776 9.78716 8.79583 9.66164 8.84766C9.53612 8.89974 9.40825 8.94557 9.2783 8.9849C9.1481 9.02448 9.01632 9.05729 8.88325 9.08385C8.74992 9.11042 8.61554 9.13021 8.48039 9.14375C8.34497 9.15703 8.20955 9.16354 8.07362 9.16354C7.93768 9.16354 7.802 9.15703 7.66685 9.14349C7.53143 9.13021 7.39731 9.11042 7.26398 9.08385C7.13065 9.05729 6.99888 9.02422 6.86893 8.9849C6.73872 8.94531 6.61086 8.89974 6.48534 8.84766C6.35981 8.79557 6.23716 8.7375 6.11711 8.67344C5.99731 8.60937 5.88091 8.53958 5.76789 8.46406C5.65487 8.38854 5.54601 8.30781 5.4408 8.22161C5.33586 8.13516 5.23507 8.04401 5.13898 7.94792C5.04289 7.85182 4.95174 7.7513 4.86554 7.64609C4.77935 7.54115 4.69862 7.43203 4.6231 7.31901C4.54757 7.20599 4.47778 7.08958 4.41372 6.96979C4.34966 6.85 4.29159 6.72708 4.2395 6.60156C4.18742 6.47604 4.14185 6.34818 4.10226 6.21823C4.06294 6.08802 4.02987 5.95651 4.0033 5.82318C3.977 5.68984 3.95695 5.55547 3.94367 5.42031C3.93039 5.2849 3.92362 5.14948 3.92362 5.01354C3.92388 4.8776 3.93065 4.74193 3.94419 4.60677C3.95747 4.47161 3.97752 4.3375 4.00435 4.20417C4.03091 4.07109 4.06398 3.93932 4.10356 3.80937C4.14315 3.67943 4.18872 3.55156 4.2408 3.42604C4.29289 3.30078 4.35096 3.17812 4.41502 3.05833C4.47935 2.93854 4.54914 2.82214 4.62466 2.70911C4.70018 2.59609 4.78091 2.48724 4.86711 2.38229C4.9533 2.27708 5.04445 2.17656 5.14054 2.08047C5.23664 1.98437 5.33716 1.89323 5.44211 1.80703C5.54731 1.72083 5.65617 1.6401 5.76919 1.56458C5.88221 1.48906 5.99836 1.41927 6.11815 1.35521C6.23794 1.29115 6.3606 1.23307 6.48612 1.18099C6.61164 1.12891 6.7395 1.08307 6.86945 1.04349C6.9994 1.00391 7.13091 0.970833 7.26424 0.944271C7.39757 0.917708 7.53169 0.897656 7.66685 0.884115C7.802 0.870833 7.93768 0.864062 8.07362 0.863802Z" fill="black"/>
</g>
<mask id="mask1_28_169" style="mask-type:luminance" maskUnits="userSpaceOnUse" x="0" y="10" width="17" height="10">
<path d="M0 10.7667H16.15V20H0V10.7667Z" fill="white"/>
</mask>
<g mask="url(#mask1_28_169)">
<path d="M8.07372 10.8307C7.94195 10.831 7.81044 10.8344 7.67893 10.8409C7.54768 10.8474 7.41643 10.8573 7.28544 10.8703C7.15445 10.8833 7.02372 10.8995 6.89377 10.919C6.76357 10.9385 6.63388 10.9609 6.50471 10.9867C6.37581 11.0125 6.24742 11.0414 6.11982 11.0737C5.99221 11.1057 5.86539 11.1409 5.73935 11.1792C5.61357 11.2174 5.48857 11.2588 5.36461 11.3031C5.24065 11.3476 5.11799 11.395 4.99638 11.4456C4.87476 11.4958 4.75471 11.5492 4.6357 11.6057C4.51669 11.662 4.39924 11.7211 4.2831 11.7833C4.16721 11.8453 4.05263 11.9101 3.93987 11.9779C3.82685 12.0456 3.71591 12.1161 3.60627 12.1893C3.4969 12.2625 3.38935 12.3383 3.28362 12.4167C3.17789 12.495 3.07424 12.576 2.97268 12.6596C2.87086 12.743 2.77112 12.8289 2.67372 12.9174C2.57607 13.0057 2.48075 13.0966 2.38778 13.1896C2.29482 13.2825 2.20393 13.3779 2.11565 13.4755C2.02711 13.5729 1.94117 13.6726 1.85784 13.7742C1.77424 13.876 1.69325 13.9797 1.61487 14.0854C1.53648 14.1911 1.4607 14.2987 1.38752 14.4081C1.31435 14.5174 1.24377 14.6286 1.17607 14.7414C1.10836 14.8544 1.04351 14.9687 0.981535 15.0849C0.919295 15.201 0.860181 15.3185 0.803931 15.4375C0.74742 15.5562 0.694035 15.6766 0.643774 15.7982C0.593254 15.9198 0.545858 16.0424 0.501326 16.1664C0.457056 16.2904 0.415649 16.4151 0.377368 16.5411C0.339087 16.6669 0.303931 16.7937 0.271899 16.9213C0.239608 17.0492 0.210701 17.1773 0.18492 17.3065C0.159139 17.4357 0.136483 17.5651 0.117212 17.6953C0.0976807 17.8255 0.0815348 17.9562 0.068514 18.087C0.0554931 18.218 0.0455973 18.3492 0.0390869 18.4807C0.032316 18.6122 0.0289307 18.7437 0.0289307 18.8753C0.0289307 18.9122 0.0307536 18.949 0.0343994 18.9857C0.0377848 19.0224 0.0432536 19.0588 0.0505452 19.095C0.0575765 19.1312 0.0666911 19.1669 0.0773682 19.2021C0.0880452 19.2375 0.100285 19.2721 0.114347 19.3062C0.12867 19.3404 0.144295 19.3734 0.161743 19.406C0.178931 19.4385 0.197941 19.47 0.218514 19.5008C0.238826 19.5315 0.260962 19.5609 0.284139 19.5896C0.307576 19.618 0.332316 19.6453 0.358358 19.6713C0.38466 19.6974 0.411743 19.7221 0.440389 19.7456C0.468774 19.769 0.498462 19.7909 0.529191 19.8115C0.55966 19.8318 0.591431 19.8508 0.623722 19.8682C0.656274 19.8857 0.689608 19.9013 0.723722 19.9154C0.757837 19.9294 0.792472 19.9419 0.827889 19.9526C0.863045 19.9633 0.898722 19.9721 0.93492 19.9794C0.971118 19.9865 1.00758 19.9919 1.0443 19.9956C1.08101 19.9992 1.11773 20.001 1.15471 20.0008H14.992C15.0792 20.0008 15.1651 19.9904 15.25 19.9703C15.3349 19.9503 15.4164 19.9206 15.4946 19.8818C15.5724 19.8427 15.6451 19.7953 15.7123 19.7396C15.7795 19.6838 15.8391 19.6211 15.8917 19.5516C15.9654 19.4542 16.0214 19.3476 16.0602 19.2318C16.0987 19.1161 16.118 18.9971 16.1177 18.875C16.1175 18.7435 16.1141 18.612 16.1076 18.4805C16.1011 18.349 16.0912 18.218 16.0781 18.087C16.0651 17.956 16.049 17.8253 16.0295 17.6953C16.0099 17.5651 15.9873 17.4354 15.9615 17.3062C15.9357 17.1773 15.9068 17.049 15.8748 16.9213C15.8427 16.7937 15.8076 16.6669 15.7693 16.5409C15.731 16.4151 15.6896 16.2901 15.6451 16.1664C15.6008 16.0424 15.5534 15.9198 15.5029 15.7982C15.4524 15.6766 15.399 15.5562 15.3427 15.4375C15.2865 15.3185 15.2271 15.201 15.1651 15.0849C15.1031 14.9687 15.038 14.8544 14.9703 14.7417C14.9029 14.6286 14.8323 14.5174 14.7591 14.4081C14.686 14.2987 14.6102 14.1911 14.5318 14.0854C14.4534 13.9797 14.3724 13.876 14.2891 13.7745C14.2055 13.6726 14.1196 13.5729 14.031 13.4755C13.9427 13.3781 13.8521 13.2828 13.7589 13.1896C13.6659 13.0966 13.5706 13.006 13.4732 12.9174C13.3755 12.8292 13.2761 12.7432 13.1742 12.6596C13.0724 12.576 12.9688 12.495 12.863 12.4167C12.7576 12.3383 12.65 12.2625 12.5404 12.1893C12.431 12.1161 12.3201 12.0458 12.2071 11.9781C12.0943 11.9104 11.9797 11.8456 11.8638 11.7833C11.7477 11.7213 11.6302 11.662 11.5112 11.6057C11.3925 11.5495 11.2722 11.4961 11.1505 11.4456C11.0289 11.3953 10.9063 11.3476 10.7823 11.3034C10.6584 11.2588 10.5336 11.2174 10.4076 11.1792C10.2818 11.1409 10.155 11.1057 10.0274 11.0737C9.89976 11.0417 9.77138 11.0128 9.64221 10.987C9.5133 10.9612 9.38362 10.9385 9.25341 10.919C9.1232 10.8997 8.99273 10.8833 8.86174 10.8703C8.73075 10.8573 8.5995 10.8474 8.46825 10.8409C8.33674 10.8344 8.20523 10.831 8.07372 10.8307ZM15.199 19.0307C15.1745 19.063 15.1443 19.0883 15.1078 19.1062C15.0714 19.1245 15.0331 19.1333 14.9925 19.1331H1.15497C1.10966 19.1333 1.06695 19.1221 1.02737 19.0997C0.987785 19.0773 0.956535 19.0463 0.933358 19.0073C0.908879 18.9667 0.896639 18.9226 0.89716 18.875C0.897681 18.7581 0.900806 18.6409 0.907056 18.524C0.913306 18.407 0.92242 18.2901 0.934399 18.1737C0.946378 18.057 0.961222 17.9409 0.97867 17.8253C0.996378 17.7094 1.01695 17.594 1.04013 17.4792C1.06331 17.3643 1.08961 17.2503 1.11825 17.1367C1.14716 17.0232 1.17893 16.9104 1.21331 16.7984C1.24768 16.6865 1.28466 16.5755 1.3245 16.4654C1.36435 16.3552 1.4068 16.2461 1.45211 16.138C1.49716 16.0299 1.54508 15.9229 1.59534 15.8172C1.64586 15.7115 1.69872 15.607 1.75419 15.5039C1.80992 15.4008 1.86773 15.299 1.92841 15.1987C1.98883 15.0984 2.05185 14.9995 2.11721 14.9023C2.18232 14.8052 2.25002 14.7096 2.32008 14.6156C2.39013 14.5219 2.46252 14.4297 2.537 14.3393C2.61148 14.249 2.68805 14.1604 2.76695 14.0737C2.84586 13.9872 2.92685 13.9026 3.00992 13.8198C3.09273 13.7372 3.17789 13.6565 3.26487 13.5781C3.35159 13.4997 3.44039 13.4234 3.53127 13.3492C3.6219 13.275 3.71435 13.2031 3.80862 13.1336C3.90263 13.0638 3.99872 12.9966 4.09612 12.9318C4.19351 12.8667 4.29273 12.8042 4.39325 12.7443C4.49377 12.6841 4.59586 12.6266 4.69924 12.5713C4.80237 12.5164 4.90706 12.4638 5.01304 12.4138C5.11903 12.3641 5.22607 12.3167 5.3344 12.2719C5.44273 12.2271 5.55211 12.1851 5.66226 12.1458C5.77268 12.1065 5.88388 12.0698 5.99612 12.0359C6.1081 12.0021 6.22112 11.9708 6.33466 11.9424C6.4482 11.9141 6.56252 11.8885 6.67763 11.8656C6.79247 11.843 6.90784 11.8229 7.02372 11.8057C7.13961 11.7885 7.25575 11.7742 7.37242 11.7628C7.48883 11.7513 7.60575 11.7427 7.72268 11.737C7.83961 11.7312 7.95679 11.7284 8.07398 11.7284C8.19117 11.7284 8.3081 11.7312 8.42502 11.737C8.54221 11.7427 8.65888 11.7513 8.77555 11.7628C8.89221 11.7742 9.00836 11.7885 9.12424 11.8057C9.24013 11.8229 9.35549 11.843 9.47034 11.8656C9.58518 11.8885 9.6995 11.9141 9.8133 11.9424C9.92685 11.9708 10.0396 12.0021 10.1518 12.0359C10.2641 12.0698 10.3753 12.1065 10.4854 12.1458C10.5959 12.1851 10.7052 12.2271 10.8133 12.2719C10.9216 12.3167 11.0287 12.3641 11.1347 12.4138C11.2406 12.4638 11.3453 12.5164 11.4487 12.5713C11.5521 12.6266 11.6542 12.6841 11.7547 12.7443C11.8552 12.8042 11.9542 12.8667 12.0518 12.9318C12.1492 12.9966 12.2451 13.0638 12.3393 13.1336C12.4336 13.2031 12.5261 13.275 12.6167 13.3492C12.7073 13.4234 12.7961 13.4997 12.8831 13.5781C12.9701 13.6565 13.055 13.7372 13.138 13.8198C13.2211 13.9026 13.3021 13.9872 13.3808 14.0737C13.4597 14.1604 13.5365 14.249 13.611 14.3393C13.6854 14.4297 13.7578 14.5219 13.8276 14.6156C13.8977 14.7096 13.9654 14.8052 14.0308 14.9023C14.0961 14.9995 14.1591 15.0984 14.2196 15.1987C14.28 15.299 14.338 15.4008 14.3935 15.5039C14.449 15.607 14.5021 15.7115 14.5524 15.8172C14.6029 15.9229 14.6505 16.0299 14.6959 16.138C14.7409 16.2461 14.7834 16.3552 14.8232 16.4654C14.863 16.5755 14.9003 16.6865 14.9347 16.7984C14.969 16.9104 15.0005 17.0232 15.0295 17.1367C15.0584 17.2503 15.0844 17.3643 15.1078 17.4792C15.131 17.594 15.1516 17.7094 15.169 17.8253C15.1867 17.9409 15.2016 18.057 15.2136 18.1737C15.2253 18.2901 15.2344 18.407 15.2406 18.524C15.2469 18.6409 15.2503 18.7581 15.2508 18.875C15.2508 18.9325 15.2334 18.9841 15.1987 19.0299L15.199 19.0307Z" fill="black"/>
</g>
</svg>
