<svg width="18" height="20" viewBox="0 0 18 20" fill="none" xmlns="http://www.w3.org/2000/svg">
<mask id="mask0_28_168" style="mask-type:luminance" maskUnits="userSpaceOnUse" x="0" y="4" width="18" height="16">
<path d="M0.122559 4.10001H17.1226V20H0.122559V4.10001Z" fill="white"/>
</mask>
<g mask="url(#mask0_28_168)">
<path d="M15.8653 20H1.4271C1.07639 20 0.736041 19.857 0.495856 19.6076C0.254608 19.3581 0.127342 19.0185 0.147003 18.6753L0.907146 5.28621C0.944874 4.62085 1.50655 4.10054 2.18725 4.10054H15.1052C15.7859 4.10054 16.3475 4.62085 16.3853 5.28621L17.1454 18.6753C17.1651 19.0185 17.0375 19.3581 16.7966 19.6076C16.5553 19.857 16.216 20 15.8653 20ZM2.18725 4.93725C1.96061 4.93725 1.7725 5.11121 1.76055 5.33231L1.0004 18.7214C0.994293 18.8378 1.03547 18.9482 1.11651 19.0326C1.19861 19.1164 1.30807 19.1633 1.4271 19.1633H15.8653C15.9843 19.1633 16.0946 19.1164 16.1756 19.0326C16.2569 18.9482 16.2989 18.8378 16.292 18.7214L15.5319 5.33231C15.5199 5.11121 15.3318 4.93725 15.1052 4.93725H2.18725Z" fill="black"/>
</g>
<mask id="mask1_28_168" style="mask-type:luminance" maskUnits="userSpaceOnUse" x="4" y="0" width="9" height="8">
<path d="M4.3396 0H12.9778V7.5H4.3396V0Z" fill="white"/>
</mask>
<g mask="url(#mask1_28_168)">
<path d="M12.494 7.46757C12.258 7.46757 12.0665 7.28007 12.0665 7.04934V4.17721C12.0665 2.33138 10.5324 0.830074 8.64621 0.830074C6.76007 0.830074 5.22597 2.33138 5.22597 4.17721V7.04934C5.22597 7.28007 5.0344 7.46757 4.79847 7.46757C4.56254 7.46757 4.37097 7.28007 4.37097 7.04934V4.17721C4.37097 1.87018 6.28873 -0.0069046 8.64621 -0.0069046C11.0037 -0.0069046 12.9215 1.87018 12.9215 4.17721V7.04934C12.9215 7.28007 12.7299 7.46757 12.494 7.46757Z" fill="black"/>
</g>
</svg>
