<svg width="387" height="441" viewBox="0 0 387 441" fill="none" xmlns="http://www.w3.org/2000/svg">
<path d="M206.458 382.74C234.457 361.643 252.929 330.288 257.81 295.572C262.691 260.856 253.581 225.623 232.485 197.623C211.388 169.624 180.033 151.152 145.317 146.271C110.601 141.39 75.3674 150.5 47.3681 171.597" stroke="#323328"/>
<path d="M66.618 105.012C64.686 104.564 63.706 103.724 63.706 102.506C63.706 101.61 64.028 100.952 64.644 100.504C65.274 100.056 66.016 99.8322 66.856 99.8322C68.704 99.8322 69.81 100.532 70.16 101.904H69.096C68.9 101.092 68.158 100.672 66.856 100.672C65.932 100.672 65.288 100.952 64.924 101.498C64.784 101.694 64.728 101.96 64.728 102.268C64.714 102.856 65.036 103.304 65.68 103.626C65.974 103.78 66.604 103.99 67.584 104.242C68.55 104.494 69.25 104.774 69.684 105.082C70.3 105.502 70.608 106.104 70.608 106.888C70.608 107.84 70.216 108.568 69.46 109.058C68.83 109.478 68.046 109.674 67.108 109.674C65.008 109.674 63.79 108.876 63.454 107.266H64.602C64.784 108.274 65.624 108.778 67.108 108.778C68.172 108.778 68.928 108.484 69.348 107.896C69.516 107.672 69.6 107.35 69.6 106.958C69.6 106.566 69.446 106.244 69.138 105.992C68.69 105.628 67.85 105.306 66.618 105.012ZM72.8091 112.992H71.6191L73.6911 108.484L71.1151 103.332H72.2351L74.2091 107.462L75.9731 103.332H77.0651L72.8091 112.992ZM85.7844 109.464L85.7704 105.614C85.7704 104.984 85.5744 104.536 85.1684 104.284C85.0284 104.2 84.8184 104.144 84.5244 104.144C84.2444 104.144 83.9644 104.228 83.7124 104.396C83.4604 104.564 83.2644 104.788 83.1104 105.04C83.0544 105.152 82.9984 105.264 82.9564 105.39C82.9564 105.46 82.9564 105.544 82.9564 105.614V109.464H81.9764V105.614C81.9764 104.984 81.7804 104.536 81.3744 104.284C81.2344 104.2 81.0244 104.144 80.7304 104.144C80.4504 104.144 80.1704 104.228 79.9184 104.396C79.6664 104.564 79.4704 104.788 79.3164 105.04C79.1204 105.39 78.9944 105.824 78.9384 106.314V109.464H77.9584V103.304H78.9384V104.298C79.1344 103.976 79.3584 103.724 79.6384 103.514C79.9604 103.29 80.3384 103.164 80.7584 103.164C81.1924 103.164 81.5424 103.234 81.8084 103.374C82.0604 103.514 82.2844 103.682 82.4524 103.906C82.5504 104.046 82.6344 104.186 82.7044 104.34C82.9004 104.004 83.1384 103.738 83.4324 103.514C83.7544 103.29 84.1324 103.164 84.5524 103.164C84.9864 103.164 85.3364 103.234 85.6024 103.374C85.8544 103.514 86.0784 103.682 86.2464 103.906C86.5824 104.354 86.7644 104.928 86.7644 105.614V109.464H85.7844ZM89.6301 109.492L88.6501 109.506V99.0062H89.6301V104.396C89.6721 104.312 89.7421 104.242 89.7981 104.186C90.3861 103.528 91.1001 103.206 91.9541 103.206C92.7941 103.206 93.5081 103.528 94.0961 104.186C94.6561 104.816 94.9501 105.558 94.9501 106.426C94.9501 107.28 94.6561 108.022 94.0961 108.652C93.5081 109.31 92.7941 109.632 91.9541 109.632C91.1001 109.632 90.3861 109.31 89.7981 108.652C89.7421 108.596 89.6721 108.526 89.6301 108.442V109.492ZM93.9701 106.426C93.9701 105.824 93.7601 105.292 93.3401 104.858C92.9201 104.41 92.4021 104.186 91.8001 104.186C91.1841 104.186 90.6661 104.41 90.2461 104.858C89.8261 105.292 89.6301 105.824 89.6301 106.426C89.6301 107.014 89.8261 107.546 90.2461 107.994C90.6661 108.442 91.1841 108.666 91.8001 108.666C92.4021 108.666 92.9201 108.442 93.3401 107.994C93.7601 107.546 93.9701 107.014 93.9701 106.426ZM97.6285 101.204C97.7405 101.33 97.8105 101.484 97.8105 101.652C97.8105 101.82 97.7405 101.974 97.6285 102.086C97.5025 102.212 97.3485 102.268 97.1805 102.268C97.0125 102.268 96.8585 102.212 96.7465 102.086C96.6205 101.974 96.5645 101.82 96.5645 101.652C96.5645 101.484 96.6205 101.33 96.7465 101.204C96.8585 101.092 97.0125 101.022 97.1805 101.022C97.3485 101.022 97.5025 101.092 97.6285 101.204ZM97.6845 109.492H96.7045V103.332H97.6845V109.492ZM104.874 106.384C104.874 105.768 104.65 105.25 104.216 104.802C103.768 104.368 103.25 104.144 102.634 104.144C102.018 104.144 101.486 104.368 101.052 104.802C100.604 105.25 100.394 105.768 100.394 106.384C100.394 107 100.604 107.518 101.052 107.952C101.486 108.4 102.018 108.61 102.634 108.61C103.25 108.61 103.768 108.4 104.216 107.952C104.65 107.518 104.874 107 104.874 106.384ZM105.854 106.384C105.854 107.28 105.532 108.036 104.902 108.652C104.272 109.282 103.502 109.59 102.634 109.59C101.752 109.59 100.982 109.282 100.352 108.652C99.7217 108.036 99.4137 107.28 99.4137 106.384C99.4137 105.502 99.7217 104.746 100.352 104.116C100.982 103.486 101.738 103.164 102.634 103.164C103.516 103.164 104.272 103.486 104.902 104.116C105.532 104.746 105.854 105.502 105.854 106.384ZM106.761 104.242V103.332H108.301V100.938H109.281V103.332H110.807V104.242H109.281V109.492H108.301V104.242H106.761ZM113.132 101.204C113.244 101.33 113.314 101.484 113.314 101.652C113.314 101.82 113.244 101.974 113.132 102.086C113.006 102.212 112.852 102.268 112.684 102.268C112.516 102.268 112.362 102.212 112.25 102.086C112.124 101.974 112.068 101.82 112.068 101.652C112.068 101.484 112.124 101.33 112.25 101.204C112.362 101.092 112.516 101.022 112.684 101.022C112.852 101.022 113.006 101.092 113.132 101.204ZM113.188 109.492H112.208V103.332H113.188V109.492ZM121.092 105.544L120.028 105.558C119.86 105.166 119.594 104.844 119.244 104.606C118.88 104.354 118.53 104.242 118.166 104.242C117.802 104.242 117.48 104.298 117.228 104.41C116.962 104.522 116.738 104.69 116.542 104.886C116.122 105.32 115.912 105.838 115.912 106.426C115.912 107.014 116.122 107.532 116.542 107.966C116.962 108.4 117.466 108.624 118.068 108.624C118.46 108.624 118.81 108.512 119.146 108.316C119.482 108.106 119.734 107.826 119.93 107.476H121.036C120.686 108.47 120.014 109.128 119.034 109.478C118.726 109.59 118.376 109.632 117.984 109.632C117.592 109.632 117.2 109.548 116.822 109.38C116.43 109.212 116.108 108.974 115.828 108.68C115.212 108.036 114.918 107.294 114.918 106.412C114.918 105.544 115.212 104.788 115.828 104.158C116.43 103.528 117.186 103.206 118.068 103.206C118.768 103.206 119.398 103.43 119.972 103.864C120.518 104.298 120.896 104.858 121.092 105.544ZM71.378 121.732C71.378 122.432 71.238 123.062 70.986 123.65C70.734 124.238 70.384 124.728 69.95 125.148C69.502 125.568 68.984 125.904 68.396 126.142C67.794 126.38 67.15 126.492 66.478 126.492H63.986V116.972H66.478C67.15 116.972 67.794 117.098 68.396 117.336C68.984 117.574 69.502 117.896 69.95 118.316C70.384 118.736 70.734 119.24 70.986 119.828C71.238 120.416 71.378 121.046 71.378 121.732ZM70.426 121.732C70.426 120.654 70.034 119.744 69.278 119.016C68.522 118.316 67.598 117.952 66.506 117.952H64.966V125.512H66.506C67.598 125.512 68.522 125.162 69.278 124.448C70.034 123.734 70.426 122.824 70.426 121.732ZM79.0842 123.272V123.804H73.6662C73.7502 124.322 74.0162 124.756 74.4362 125.106C74.8562 125.442 75.3322 125.624 75.8642 125.624C76.2142 125.624 76.5502 125.54 76.8722 125.372C77.1942 125.204 77.4602 124.98 77.6842 124.686H78.8042C78.5382 125.274 78.1462 125.75 77.6142 126.086C77.0822 126.422 76.5502 126.59 76.0042 126.59C75.4582 126.59 74.9962 126.506 74.6042 126.338C74.2122 126.17 73.8762 125.946 73.5822 125.652C72.9522 125.036 72.6442 124.28 72.6442 123.384C72.6442 122.502 72.9522 121.746 73.5822 121.116C74.2122 120.486 74.9682 120.164 75.8642 120.164C76.7182 120.164 77.4742 120.472 78.1042 121.074C78.7482 121.704 79.0842 122.432 79.0842 123.272ZM78.0482 122.964C77.9222 122.432 77.6702 121.998 77.2502 121.648C76.8442 121.312 76.3822 121.144 75.8642 121.144C75.0522 121.144 74.4222 121.508 73.9742 122.236C73.8342 122.46 73.7362 122.698 73.6802 122.964H78.0482ZM81.5751 125.624C81.8271 125.792 82.1491 125.876 82.5271 125.876C83.4231 125.876 83.8711 125.54 83.8711 124.868C83.8711 124.476 83.5491 124.168 82.9191 123.958C82.6391 123.874 82.3451 123.79 82.0371 123.72C81.7291 123.636 81.4351 123.538 81.1551 123.412C80.8471 123.272 80.6091 123.09 80.4411 122.852C80.2871 122.628 80.2031 122.362 80.2031 122.068C80.2031 121.452 80.4271 120.99 80.8471 120.668C81.2811 120.36 81.7991 120.206 82.3871 120.206C82.9891 120.206 83.4791 120.318 83.8851 120.57C84.2771 120.808 84.5431 121.242 84.6691 121.872H83.6191C83.5211 121.522 83.3531 121.298 83.1431 121.186C82.9331 121.074 82.6671 121.018 82.3591 121.018C82.0651 121.018 81.7991 121.074 81.5751 121.214C81.3511 121.34 81.2391 121.55 81.2391 121.83C81.2391 122.11 81.3371 122.306 81.5191 122.432C81.7011 122.558 81.9251 122.67 82.2051 122.754C82.4711 122.838 82.7651 122.922 83.0731 122.992C83.3951 123.062 83.6891 123.16 83.9551 123.286C84.5991 123.594 84.9071 124.07 84.9071 124.742C84.9071 125.4 84.6691 125.89 84.1931 126.212C83.9551 126.366 83.7031 126.478 83.4091 126.562C83.1151 126.646 82.8071 126.674 82.4711 126.674C81.0431 126.674 80.2311 126.044 80.0211 124.77H81.0571C81.1551 125.176 81.3371 125.456 81.5751 125.624ZM87.3199 118.204C87.4319 118.33 87.5019 118.484 87.5019 118.652C87.5019 118.82 87.4319 118.974 87.3199 119.086C87.1939 119.212 87.0399 119.268 86.8719 119.268C86.7039 119.268 86.5499 119.212 86.4379 119.086C86.3119 118.974 86.2559 118.82 86.2559 118.652C86.2559 118.484 86.3119 118.33 86.4379 118.204C86.5499 118.092 86.7039 118.022 86.8719 118.022C87.0399 118.022 87.1939 118.092 87.3199 118.204ZM87.3759 126.492H86.3959V120.332H87.3759V126.492ZM94.5091 123.412C94.5091 122.824 94.2991 122.292 93.8791 121.844C93.4591 121.396 92.9411 121.172 92.3391 121.172C91.7371 121.172 91.2191 121.396 90.7851 121.844C90.3651 122.292 90.1551 122.81 90.1551 123.412C90.1551 124.028 90.3651 124.546 90.7851 124.98C91.2191 125.428 91.7371 125.652 92.3391 125.652C92.9411 125.652 93.4591 125.428 93.8791 124.98C94.2991 124.546 94.5091 124.014 94.5091 123.412ZM90.1411 127.332C90.2251 127.724 90.4211 128.06 90.7291 128.368C91.1631 128.802 91.6811 129.012 92.2971 129.012C92.8991 129.012 93.4171 128.802 93.8511 128.368C94.2851 127.934 94.5091 127.416 94.5091 126.8V125.47C94.4531 125.526 94.3971 125.596 94.3411 125.652C93.7531 126.31 93.0391 126.632 92.1991 126.632C91.3311 126.632 90.6171 126.31 90.0291 125.652C89.4691 125.022 89.1891 124.28 89.1891 123.412C89.1891 122.558 89.4691 121.816 90.0291 121.172C90.6171 120.528 91.3311 120.192 92.1991 120.192C93.0111 120.192 93.7251 120.528 94.3411 121.172C94.3971 121.242 94.4531 121.312 94.5091 121.368V120.332H95.4891V126.8C95.4891 127.682 95.1671 128.438 94.5511 129.054C93.9211 129.684 93.1651 129.992 92.2971 129.992C91.4151 129.992 90.6591 129.684 90.0431 129.054C89.5391 128.564 89.2451 127.99 89.1331 127.332H90.1411ZM101.848 126.492V122.656C101.848 122.25 101.75 121.9 101.568 121.62C101.386 121.34 101.092 121.2 100.672 121.2C100.252 121.2 99.9015 121.27 99.6495 121.438C99.3835 121.592 99.1735 121.802 99.0055 122.054C98.7115 122.516 98.5715 123.132 98.5715 123.916V126.492H97.5915V120.332H98.5715V121.396C98.7675 121.046 99.0335 120.766 99.3555 120.556C99.6915 120.332 100.07 120.206 100.518 120.206C100.952 120.206 101.302 120.276 101.582 120.402C101.848 120.528 102.072 120.696 102.268 120.92C102.632 121.354 102.828 121.928 102.828 122.642V126.492H101.848Z" fill="black"/>
<path d="M176.77 112.686C174.838 112.238 173.858 111.398 173.858 110.18C173.858 109.284 174.18 108.626 174.796 108.178C175.426 107.73 176.168 107.506 177.008 107.506C178.856 107.506 179.962 108.206 180.312 109.578H179.248C179.052 108.766 178.31 108.346 177.008 108.346C176.084 108.346 175.44 108.626 175.076 109.172C174.936 109.368 174.88 109.634 174.88 109.942C174.866 110.53 175.188 110.978 175.832 111.3C176.126 111.454 176.756 111.664 177.736 111.916C178.702 112.168 179.402 112.448 179.836 112.756C180.452 113.176 180.76 113.778 180.76 114.562C180.76 115.514 180.368 116.242 179.612 116.732C178.982 117.152 178.198 117.348 177.26 117.348C175.16 117.348 173.942 116.55 173.606 114.94H174.754C174.936 115.948 175.776 116.452 177.26 116.452C178.324 116.452 179.08 116.158 179.5 115.57C179.668 115.346 179.752 115.024 179.752 114.632C179.752 114.24 179.598 113.918 179.29 113.666C178.842 113.302 178.002 112.98 176.77 112.686ZM188.197 113.946V114.478H182.779C182.863 114.996 183.129 115.43 183.549 115.78C183.969 116.116 184.445 116.298 184.977 116.298C185.327 116.298 185.663 116.214 185.985 116.046C186.307 115.878 186.573 115.654 186.797 115.36H187.917C187.651 115.948 187.259 116.424 186.727 116.76C186.195 117.096 185.663 117.264 185.117 117.264C184.571 117.264 184.109 117.18 183.717 117.012C183.325 116.844 182.989 116.62 182.695 116.326C182.065 115.71 181.757 114.954 181.757 114.058C181.757 113.176 182.065 112.42 182.695 111.79C183.325 111.16 184.081 110.838 184.977 110.838C185.831 110.838 186.587 111.146 187.217 111.748C187.861 112.378 188.197 113.106 188.197 113.946ZM187.161 113.638C187.035 113.106 186.783 112.672 186.363 112.322C185.957 111.986 185.495 111.818 184.977 111.818C184.165 111.818 183.535 112.182 183.087 112.91C182.947 113.134 182.849 113.372 182.793 113.638H187.161ZM194.062 117.166V113.33C194.062 112.924 193.964 112.574 193.782 112.294C193.6 112.014 193.306 111.874 192.886 111.874C192.466 111.874 192.116 111.944 191.864 112.112C191.598 112.266 191.388 112.476 191.22 112.728C190.926 113.19 190.786 113.806 190.786 114.59V117.166H189.806V111.006H190.786V112.07C190.982 111.72 191.248 111.44 191.57 111.23C191.906 111.006 192.284 110.88 192.732 110.88C193.166 110.88 193.516 110.95 193.796 111.076C194.062 111.202 194.286 111.37 194.482 111.594C194.846 112.028 195.042 112.602 195.042 113.316V117.166H194.062ZM197.811 116.298C198.063 116.466 198.385 116.55 198.763 116.55C199.659 116.55 200.107 116.214 200.107 115.542C200.107 115.15 199.785 114.842 199.155 114.632C198.875 114.548 198.581 114.464 198.273 114.394C197.965 114.31 197.671 114.212 197.391 114.086C197.083 113.946 196.845 113.764 196.677 113.526C196.523 113.302 196.439 113.036 196.439 112.742C196.439 112.126 196.663 111.664 197.083 111.342C197.517 111.034 198.035 110.88 198.623 110.88C199.225 110.88 199.715 110.992 200.121 111.244C200.513 111.482 200.779 111.916 200.905 112.546H199.855C199.757 112.196 199.589 111.972 199.379 111.86C199.169 111.748 198.903 111.692 198.595 111.692C198.301 111.692 198.035 111.748 197.811 111.888C197.587 112.014 197.475 112.224 197.475 112.504C197.475 112.784 197.573 112.98 197.755 113.106C197.937 113.232 198.161 113.344 198.441 113.428C198.707 113.512 199.001 113.596 199.309 113.666C199.631 113.736 199.925 113.834 200.191 113.96C200.835 114.268 201.143 114.744 201.143 115.416C201.143 116.074 200.905 116.564 200.429 116.886C200.191 117.04 199.939 117.152 199.645 117.236C199.351 117.32 199.043 117.348 198.707 117.348C197.279 117.348 196.467 116.718 196.257 115.444H197.293C197.391 115.85 197.573 116.13 197.811 116.298ZM207.602 114.058C207.602 113.442 207.378 112.924 206.944 112.476C206.496 112.042 205.978 111.818 205.362 111.818C204.746 111.818 204.214 112.042 203.78 112.476C203.332 112.924 203.122 113.442 203.122 114.058C203.122 114.674 203.332 115.192 203.78 115.626C204.214 116.074 204.746 116.284 205.362 116.284C205.978 116.284 206.496 116.074 206.944 115.626C207.378 115.192 207.602 114.674 207.602 114.058ZM208.582 114.058C208.582 114.954 208.26 115.71 207.63 116.326C207 116.956 206.23 117.264 205.362 117.264C204.48 117.264 203.71 116.956 203.08 116.326C202.45 115.71 202.142 114.954 202.142 114.058C202.142 113.176 202.45 112.42 203.08 111.79C203.71 111.16 204.466 110.838 205.362 110.838C206.244 110.838 207 111.16 207.63 111.79C208.26 112.42 208.582 113.176 208.582 114.058ZM213.423 112.28C213.185 112.084 212.947 111.972 212.695 111.972C212.443 111.972 212.219 112.056 212.037 112.196C211.855 112.336 211.701 112.518 211.589 112.728C211.351 113.134 211.239 113.582 211.239 114.086V117.166H210.259V111.006H211.239V112.28L211.281 112.028C211.603 111.272 212.107 110.88 212.807 110.88C213.017 110.88 213.227 110.922 213.423 111.006V112.28ZM215.391 120.666H214.201L216.273 116.158L213.697 111.006H214.817L216.791 115.136L218.555 111.006H219.647L215.391 120.666ZM175.118 134.166H174.138V124.646H175.118V134.166ZM181.47 134.166V130.33C181.47 129.924 181.372 129.574 181.19 129.294C181.008 129.014 180.714 128.874 180.294 128.874C179.874 128.874 179.524 128.944 179.272 129.112C179.006 129.266 178.796 129.476 178.628 129.728C178.334 130.19 178.194 130.806 178.194 131.59V134.166H177.214V128.006H178.194V129.07C178.39 128.72 178.656 128.44 178.978 128.23C179.314 128.006 179.692 127.88 180.14 127.88C180.574 127.88 180.924 127.95 181.204 128.076C181.47 128.202 181.694 128.37 181.89 128.594C182.254 129.028 182.45 129.602 182.45 130.316V134.166H181.47ZM183.567 128.916V128.006H185.107V125.612H186.087V128.006H187.613V128.916H186.087V134.166H185.107V128.916H183.567ZM194.965 130.946V131.478H189.547C189.631 131.996 189.897 132.43 190.317 132.78C190.737 133.116 191.213 133.298 191.745 133.298C192.095 133.298 192.431 133.214 192.753 133.046C193.075 132.878 193.341 132.654 193.565 132.36H194.685C194.419 132.948 194.027 133.424 193.495 133.76C192.963 134.096 192.431 134.264 191.885 134.264C191.339 134.264 190.877 134.18 190.485 134.012C190.093 133.844 189.757 133.62 189.463 133.326C188.833 132.71 188.525 131.954 188.525 131.058C188.525 130.176 188.833 129.42 189.463 128.79C190.093 128.16 190.849 127.838 191.745 127.838C192.599 127.838 193.355 128.146 193.985 128.748C194.629 129.378 194.965 130.106 194.965 130.946ZM193.929 130.638C193.803 130.106 193.551 129.672 193.131 129.322C192.725 128.986 192.263 128.818 191.745 128.818C190.933 128.818 190.303 129.182 189.855 129.91C189.715 130.134 189.617 130.372 189.561 130.638H193.929ZM201.557 131.086C201.557 130.498 201.347 129.966 200.927 129.518C200.507 129.07 199.989 128.846 199.387 128.846C198.785 128.846 198.267 129.07 197.833 129.518C197.413 129.966 197.203 130.484 197.203 131.086C197.203 131.702 197.413 132.22 197.833 132.654C198.267 133.102 198.785 133.326 199.387 133.326C199.989 133.326 200.507 133.102 200.927 132.654C201.347 132.22 201.557 131.688 201.557 131.086ZM197.189 135.006C197.273 135.398 197.469 135.734 197.777 136.042C198.211 136.476 198.729 136.686 199.345 136.686C199.947 136.686 200.465 136.476 200.899 136.042C201.333 135.608 201.557 135.09 201.557 134.474V133.144C201.501 133.2 201.445 133.27 201.389 133.326C200.801 133.984 200.087 134.306 199.247 134.306C198.379 134.306 197.665 133.984 197.077 133.326C196.517 132.696 196.237 131.954 196.237 131.086C196.237 130.232 196.517 129.49 197.077 128.846C197.665 128.202 198.379 127.866 199.247 127.866C200.059 127.866 200.773 128.202 201.389 128.846C201.445 128.916 201.501 128.986 201.557 129.042V128.006H202.537V134.474C202.537 135.356 202.215 136.112 201.599 136.728C200.969 137.358 200.213 137.666 199.345 137.666C198.463 137.666 197.707 137.358 197.091 136.728C196.587 136.238 196.293 135.664 196.181 135.006H197.189ZM207.804 129.28C207.566 129.084 207.328 128.972 207.076 128.972C206.824 128.972 206.6 129.056 206.418 129.196C206.236 129.336 206.082 129.518 205.97 129.728C205.732 130.134 205.62 130.582 205.62 131.086V134.166H204.64V128.006H205.62V129.28L205.662 129.028C205.984 128.272 206.488 127.88 207.188 127.88C207.398 127.88 207.608 127.922 207.804 128.006V129.28ZM213.888 131.086C213.888 130.498 213.678 129.966 213.258 129.518C212.838 129.07 212.32 128.846 211.718 128.846C211.102 128.846 210.584 129.07 210.164 129.518C209.744 129.966 209.548 130.498 209.548 131.086C209.548 131.688 209.744 132.22 210.164 132.654C210.584 133.102 211.102 133.326 211.718 133.326C212.32 133.326 212.838 133.102 213.258 132.654C213.678 132.22 213.888 131.688 213.888 131.086ZM214.868 134.166H213.888V133.116C213.832 133.2 213.762 133.27 213.706 133.326C213.118 133.984 212.404 134.306 211.564 134.306C210.71 134.306 209.995 133.984 209.408 133.326C208.848 132.696 208.568 131.954 208.568 131.086C208.568 130.232 208.848 129.49 209.408 128.846C209.995 128.202 210.71 127.866 211.564 127.866C212.404 127.866 213.118 128.202 213.706 128.846C213.762 128.916 213.832 128.986 213.888 129.07V128.006H214.868V134.166ZM216.202 128.916V128.006H217.742V125.612H218.722V128.006H220.248V128.916H218.722V134.166H217.742V128.916H216.202ZM222.573 125.878C222.685 126.004 222.755 126.158 222.755 126.326C222.755 126.494 222.685 126.648 222.573 126.76C222.447 126.886 222.293 126.942 222.125 126.942C221.957 126.942 221.803 126.886 221.691 126.76C221.565 126.648 221.509 126.494 221.509 126.326C221.509 126.158 221.565 126.004 221.691 125.878C221.803 125.766 221.957 125.696 222.125 125.696C222.293 125.696 222.447 125.766 222.573 125.878ZM222.629 134.166H221.649V128.006H222.629V134.166ZM229.819 131.058C229.819 130.442 229.595 129.924 229.161 129.476C228.713 129.042 228.195 128.818 227.579 128.818C226.963 128.818 226.431 129.042 225.997 129.476C225.549 129.924 225.339 130.442 225.339 131.058C225.339 131.674 225.549 132.192 225.997 132.626C226.431 133.074 226.963 133.284 227.579 133.284C228.195 133.284 228.713 133.074 229.161 132.626C229.595 132.192 229.819 131.674 229.819 131.058ZM230.799 131.058C230.799 131.954 230.477 132.71 229.847 133.326C229.217 133.956 228.447 134.264 227.579 134.264C226.697 134.264 225.927 133.956 225.297 133.326C224.667 132.71 224.359 131.954 224.359 131.058C224.359 130.176 224.667 129.42 225.297 128.79C225.927 128.16 226.683 127.838 227.579 127.838C228.461 127.838 229.217 128.16 229.847 128.79C230.477 129.42 230.799 130.176 230.799 131.058ZM236.732 134.166V130.33C236.732 129.924 236.634 129.574 236.452 129.294C236.27 129.014 235.976 128.874 235.556 128.874C235.136 128.874 234.786 128.944 234.534 129.112C234.268 129.266 234.058 129.476 233.89 129.728C233.596 130.19 233.456 130.806 233.456 131.59V134.166H232.476V128.006H233.456V129.07C233.652 128.72 233.918 128.44 234.24 128.23C234.576 128.006 234.954 127.88 235.402 127.88C235.836 127.88 236.186 127.95 236.466 128.076C236.732 128.202 236.956 128.37 237.152 128.594C237.516 129.028 237.712 129.602 237.712 130.316V134.166H236.732Z" fill="black"/>
<path d="M242.882 166.528H246.34L244.618 162.146L242.882 166.528ZM248.79 170.028H247.726L246.704 167.438H242.518L241.496 170.028H240.432L244.618 159.85L248.79 170.028ZM254.882 166.948C254.882 166.36 254.672 165.828 254.252 165.38C253.832 164.932 253.314 164.708 252.712 164.708C252.096 164.708 251.578 164.932 251.158 165.38C250.738 165.828 250.542 166.36 250.542 166.948C250.542 167.55 250.738 168.082 251.158 168.516C251.578 168.964 252.096 169.188 252.712 169.188C253.314 169.188 253.832 168.964 254.252 168.516C254.672 168.082 254.882 167.55 254.882 166.948ZM255.862 170.028H254.882V168.978C254.826 169.062 254.756 169.132 254.7 169.188C254.112 169.846 253.398 170.168 252.558 170.168C251.704 170.168 250.99 169.846 250.402 169.188C249.842 168.558 249.562 167.816 249.562 166.948C249.562 166.094 249.842 165.352 250.402 164.708C250.99 164.064 251.704 163.728 252.558 163.728C253.398 163.728 254.112 164.064 254.7 164.708C254.756 164.778 254.826 164.848 254.882 164.932V159.528H255.862V170.028ZM262.867 166.948C262.867 166.36 262.657 165.828 262.237 165.38C261.817 164.932 261.299 164.708 260.697 164.708C260.081 164.708 259.563 164.932 259.143 165.38C258.723 165.828 258.527 166.36 258.527 166.948C258.527 167.55 258.723 168.082 259.143 168.516C259.563 168.964 260.081 169.188 260.697 169.188C261.299 169.188 261.817 168.964 262.237 168.516C262.657 168.082 262.867 167.55 262.867 166.948ZM263.847 170.028H262.867V168.978C262.811 169.062 262.741 169.132 262.685 169.188C262.097 169.846 261.383 170.168 260.543 170.168C259.689 170.168 258.975 169.846 258.387 169.188C257.827 168.558 257.547 167.816 257.547 166.948C257.547 166.094 257.827 165.352 258.387 164.708C258.975 164.064 259.689 163.728 260.543 163.728C261.383 163.728 262.097 164.064 262.685 164.708C262.741 164.778 262.811 164.848 262.867 164.932V163.868H263.847V170.028ZM266.931 173.528L265.951 173.542V163.882H266.931V164.932C266.973 164.848 267.043 164.778 267.099 164.722C267.687 164.064 268.401 163.742 269.255 163.742C270.095 163.742 270.809 164.064 271.397 164.722C271.957 165.352 272.251 166.094 272.251 166.962C272.251 167.816 271.957 168.558 271.397 169.188C270.809 169.846 270.095 170.168 269.255 170.168C268.401 170.168 267.687 169.846 267.099 169.188C267.043 169.132 266.973 169.062 266.931 168.978V173.528ZM271.271 166.962C271.271 166.36 271.061 165.828 270.641 165.394C270.221 164.946 269.703 164.722 269.101 164.722C268.485 164.722 267.967 164.946 267.547 165.394C267.127 165.828 266.931 166.36 266.931 166.962C266.931 167.55 267.127 168.082 267.547 168.53C267.967 168.978 268.485 169.202 269.101 169.202C269.703 169.202 270.221 168.978 270.641 168.53C271.061 168.082 271.271 167.55 271.271 166.962ZM273.165 164.778V163.868H274.705V161.474H275.685V163.868H277.211V164.778H275.685V170.028H274.705V164.778H273.165ZM279.537 161.74C279.649 161.866 279.719 162.02 279.719 162.188C279.719 162.356 279.649 162.51 279.537 162.622C279.411 162.748 279.257 162.804 279.089 162.804C278.921 162.804 278.767 162.748 278.655 162.622C278.529 162.51 278.473 162.356 278.473 162.188C278.473 162.02 278.529 161.866 278.655 161.74C278.767 161.628 278.921 161.558 279.089 161.558C279.257 161.558 279.411 161.628 279.537 161.74ZM279.593 170.028H278.613V163.868H279.593V170.028ZM283.674 170.616L280.832 163.868H281.896L283.674 168.446L285.438 163.868H286.502L283.674 170.616ZM293.709 166.808V167.34H288.291C288.375 167.858 288.641 168.292 289.061 168.642C289.481 168.978 289.957 169.16 290.489 169.16C290.839 169.16 291.175 169.076 291.497 168.908C291.819 168.74 292.085 168.516 292.309 168.222H293.429C293.163 168.81 292.771 169.286 292.239 169.622C291.707 169.958 291.175 170.126 290.629 170.126C290.083 170.126 289.621 170.042 289.229 169.874C288.837 169.706 288.501 169.482 288.207 169.188C287.577 168.572 287.269 167.816 287.269 166.92C287.269 166.038 287.577 165.282 288.207 164.652C288.837 164.022 289.593 163.7 290.489 163.7C291.343 163.7 292.099 164.008 292.729 164.61C293.373 165.24 293.709 165.968 293.709 166.808ZM292.673 166.5C292.547 165.968 292.295 165.534 291.875 165.184C291.469 164.848 291.007 164.68 290.489 164.68C289.677 164.68 289.047 165.044 288.599 165.772C288.459 165.996 288.361 166.234 288.305 166.5H292.673ZM242.322 187.028H241.342V177.508H242.322V187.028ZM248.674 187.028V183.192C248.674 182.786 248.576 182.436 248.394 182.156C248.212 181.876 247.918 181.736 247.498 181.736C247.078 181.736 246.728 181.806 246.476 181.974C246.21 182.128 246 182.338 245.832 182.59C245.538 183.052 245.398 183.668 245.398 184.452V187.028H244.418V180.868H245.398V181.932C245.594 181.582 245.86 181.302 246.182 181.092C246.518 180.868 246.896 180.742 247.344 180.742C247.778 180.742 248.128 180.812 248.408 180.938C248.674 181.064 248.898 181.232 249.094 181.456C249.458 181.89 249.654 182.464 249.654 183.178V187.028H248.674ZM250.771 181.778V180.868H252.311V178.474H253.291V180.868H254.817V181.778H253.291V187.028H252.311V181.778H250.771ZM262.168 183.808V184.34H256.75C256.834 184.858 257.1 185.292 257.52 185.642C257.94 185.978 258.416 186.16 258.948 186.16C259.298 186.16 259.634 186.076 259.956 185.908C260.278 185.74 260.544 185.516 260.768 185.222H261.888C261.622 185.81 261.23 186.286 260.698 186.622C260.166 186.958 259.634 187.126 259.088 187.126C258.542 187.126 258.08 187.042 257.688 186.874C257.296 186.706 256.96 186.482 256.666 186.188C256.036 185.572 255.728 184.816 255.728 183.92C255.728 183.038 256.036 182.282 256.666 181.652C257.296 181.022 258.052 180.7 258.948 180.7C259.802 180.7 260.558 181.008 261.188 181.61C261.832 182.24 262.168 182.968 262.168 183.808ZM261.132 183.5C261.006 182.968 260.754 182.534 260.334 182.184C259.928 181.848 259.466 181.68 258.948 181.68C258.136 181.68 257.506 182.044 257.058 182.772C256.918 182.996 256.82 183.234 256.764 183.5H261.132ZM264.757 187.028H263.777V176.528H264.757V187.028ZM267.833 187.028H266.853V176.528H267.833V187.028ZM270.923 178.74C271.035 178.866 271.105 179.02 271.105 179.188C271.105 179.356 271.035 179.51 270.923 179.622C270.797 179.748 270.643 179.804 270.475 179.804C270.307 179.804 270.153 179.748 270.041 179.622C269.915 179.51 269.859 179.356 269.859 179.188C269.859 179.02 269.915 178.866 270.041 178.74C270.153 178.628 270.307 178.558 270.475 178.558C270.643 178.558 270.797 178.628 270.923 178.74ZM270.979 187.028H269.999V180.868H270.979V187.028ZM278.113 183.948C278.113 183.36 277.903 182.828 277.483 182.38C277.063 181.932 276.545 181.708 275.943 181.708C275.341 181.708 274.823 181.932 274.389 182.38C273.969 182.828 273.759 183.346 273.759 183.948C273.759 184.564 273.969 185.082 274.389 185.516C274.823 185.964 275.341 186.188 275.943 186.188C276.545 186.188 277.063 185.964 277.483 185.516C277.903 185.082 278.113 184.55 278.113 183.948ZM273.745 187.868C273.829 188.26 274.025 188.596 274.333 188.904C274.767 189.338 275.285 189.548 275.901 189.548C276.503 189.548 277.021 189.338 277.455 188.904C277.889 188.47 278.113 187.952 278.113 187.336V186.006C278.057 186.062 278.001 186.132 277.945 186.188C277.357 186.846 276.643 187.168 275.803 187.168C274.935 187.168 274.221 186.846 273.633 186.188C273.073 185.558 272.793 184.816 272.793 183.948C272.793 183.094 273.073 182.352 273.633 181.708C274.221 181.064 274.935 180.728 275.803 180.728C276.615 180.728 277.329 181.064 277.945 181.708C278.001 181.778 278.057 181.848 278.113 181.904V180.868H279.093V187.336C279.093 188.218 278.771 188.974 278.155 189.59C277.525 190.22 276.769 190.528 275.901 190.528C275.019 190.528 274.263 190.22 273.647 189.59C273.143 189.1 272.849 188.526 272.737 187.868H273.745ZM287.215 183.808V184.34H281.797C281.881 184.858 282.147 185.292 282.567 185.642C282.987 185.978 283.463 186.16 283.995 186.16C284.345 186.16 284.681 186.076 285.003 185.908C285.325 185.74 285.591 185.516 285.815 185.222H286.935C286.669 185.81 286.277 186.286 285.745 186.622C285.213 186.958 284.681 187.126 284.135 187.126C283.589 187.126 283.127 187.042 282.735 186.874C282.343 186.706 282.007 186.482 281.713 186.188C281.083 185.572 280.775 184.816 280.775 183.92C280.775 183.038 281.083 182.282 281.713 181.652C282.343 181.022 283.099 180.7 283.995 180.7C284.849 180.7 285.605 181.008 286.235 181.61C286.879 182.24 287.215 182.968 287.215 183.808ZM286.179 183.5C286.053 182.968 285.801 182.534 285.381 182.184C284.975 181.848 284.513 181.68 283.995 181.68C283.183 181.68 282.553 182.044 282.105 182.772C281.965 182.996 281.867 183.234 281.811 183.5H286.179ZM293.08 187.028V183.192C293.08 182.786 292.982 182.436 292.8 182.156C292.618 181.876 292.324 181.736 291.904 181.736C291.484 181.736 291.134 181.806 290.882 181.974C290.616 182.128 290.406 182.338 290.238 182.59C289.944 183.052 289.804 183.668 289.804 184.452V187.028H288.824V180.868H289.804V181.932C290 181.582 290.266 181.302 290.588 181.092C290.924 180.868 291.302 180.742 291.75 180.742C292.184 180.742 292.534 180.812 292.814 180.938C293.08 181.064 293.304 181.232 293.5 181.456C293.864 181.89 294.06 182.464 294.06 183.178V187.028H293.08ZM301.701 183.08L300.637 183.094C300.469 182.702 300.203 182.38 299.853 182.142C299.489 181.89 299.139 181.778 298.775 181.778C298.411 181.778 298.089 181.834 297.837 181.946C297.571 182.058 297.347 182.226 297.151 182.422C296.731 182.856 296.521 183.374 296.521 183.962C296.521 184.55 296.731 185.068 297.151 185.502C297.571 185.936 298.075 186.16 298.677 186.16C299.069 186.16 299.419 186.048 299.755 185.852C300.091 185.642 300.343 185.362 300.539 185.012H301.645C301.295 186.006 300.623 186.664 299.643 187.014C299.335 187.126 298.985 187.168 298.593 187.168C298.201 187.168 297.809 187.084 297.431 186.916C297.039 186.748 296.717 186.51 296.437 186.216C295.821 185.572 295.527 184.83 295.527 183.948C295.527 183.08 295.821 182.324 296.437 181.694C297.039 181.064 297.795 180.742 298.677 180.742C299.377 180.742 300.007 180.966 300.581 181.4C301.127 181.834 301.505 182.394 301.701 183.08ZM309.268 183.808V184.34H303.85C303.934 184.858 304.2 185.292 304.62 185.642C305.04 185.978 305.516 186.16 306.048 186.16C306.398 186.16 306.734 186.076 307.056 185.908C307.378 185.74 307.644 185.516 307.868 185.222H308.988C308.722 185.81 308.33 186.286 307.798 186.622C307.266 186.958 306.734 187.126 306.188 187.126C305.642 187.126 305.18 187.042 304.788 186.874C304.396 186.706 304.06 186.482 303.766 186.188C303.136 185.572 302.828 184.816 302.828 183.92C302.828 183.038 303.136 182.282 303.766 181.652C304.396 181.022 305.152 180.7 306.048 180.7C306.902 180.7 307.658 181.008 308.288 181.61C308.932 182.24 309.268 182.968 309.268 183.808ZM308.232 183.5C308.106 182.968 307.854 182.534 307.434 182.184C307.028 181.848 306.566 181.68 306.048 181.68C305.236 181.68 304.606 182.044 304.158 182.772C304.018 182.996 303.92 183.234 303.864 183.5H308.232Z" fill="black"/>
<path d="M277.716 254.705C277.352 255.629 276.778 256.357 275.98 256.917C275.154 257.477 274.272 257.757 273.306 257.757C271.976 257.757 270.856 257.281 269.932 256.301C269.008 255.349 268.56 254.215 268.56 252.871C268.56 252.213 268.672 251.583 268.924 250.995C269.162 250.407 269.498 249.875 269.932 249.427C270.856 248.461 271.976 247.971 273.306 247.971C274.272 247.971 275.154 248.251 275.966 248.811C276.764 249.371 277.338 250.099 277.702 250.995H276.624C276.106 250.057 275.336 249.441 274.314 249.133C273.978 249.035 273.6 248.979 273.166 248.979C272.718 248.979 272.27 249.091 271.822 249.301C271.36 249.511 270.954 249.791 270.618 250.141C269.89 250.897 269.54 251.807 269.54 252.871C269.54 253.935 269.89 254.845 270.618 255.587C271.36 256.371 272.256 256.749 273.306 256.749C274.006 256.749 274.664 256.567 275.252 256.189C275.84 255.825 276.302 255.321 276.638 254.705H277.716ZM284.22 254.509C284.22 253.893 283.996 253.375 283.562 252.927C283.114 252.493 282.596 252.269 281.98 252.269C281.364 252.269 280.832 252.493 280.398 252.927C279.95 253.375 279.74 253.893 279.74 254.509C279.74 255.125 279.95 255.643 280.398 256.077C280.832 256.525 281.364 256.735 281.98 256.735C282.596 256.735 283.114 256.525 283.562 256.077C283.996 255.643 284.22 255.125 284.22 254.509ZM285.2 254.509C285.2 255.405 284.878 256.161 284.248 256.777C283.618 257.407 282.848 257.715 281.98 257.715C281.098 257.715 280.328 257.407 279.698 256.777C279.068 256.161 278.76 255.405 278.76 254.509C278.76 253.627 279.068 252.871 279.698 252.241C280.328 251.611 281.084 251.289 281.98 251.289C282.862 251.289 283.618 251.611 284.248 252.241C284.878 252.871 285.2 253.627 285.2 254.509ZM291.133 257.617V253.781C291.133 253.375 291.035 253.025 290.853 252.745C290.671 252.465 290.377 252.325 289.957 252.325C289.537 252.325 289.187 252.395 288.935 252.563C288.669 252.717 288.459 252.927 288.291 253.179C287.997 253.641 287.857 254.257 287.857 255.041V257.617H286.877V251.457H287.857V252.521C288.053 252.171 288.319 251.891 288.641 251.681C288.977 251.457 289.355 251.331 289.803 251.331C290.237 251.331 290.587 251.401 290.867 251.527C291.133 251.653 291.357 251.821 291.553 252.045C291.917 252.479 292.113 253.053 292.113 253.767V257.617H291.133ZM294.882 256.749C295.134 256.917 295.456 257.001 295.834 257.001C296.73 257.001 297.178 256.665 297.178 255.993C297.178 255.601 296.856 255.293 296.226 255.083C295.946 254.999 295.652 254.915 295.344 254.845C295.036 254.761 294.742 254.663 294.462 254.537C294.154 254.397 293.916 254.215 293.748 253.977C293.594 253.753 293.51 253.487 293.51 253.193C293.51 252.577 293.734 252.115 294.154 251.793C294.588 251.485 295.106 251.331 295.694 251.331C296.296 251.331 296.786 251.443 297.192 251.695C297.584 251.933 297.85 252.367 297.976 252.997H296.926C296.828 252.647 296.66 252.423 296.45 252.311C296.24 252.199 295.974 252.143 295.666 252.143C295.372 252.143 295.106 252.199 294.882 252.339C294.658 252.465 294.546 252.675 294.546 252.955C294.546 253.235 294.644 253.431 294.826 253.557C295.008 253.683 295.232 253.795 295.512 253.879C295.778 253.963 296.072 254.047 296.38 254.117C296.702 254.187 296.996 254.285 297.262 254.411C297.906 254.719 298.214 255.195 298.214 255.867C298.214 256.525 297.976 257.015 297.5 257.337C297.262 257.491 297.01 257.603 296.716 257.687C296.422 257.771 296.114 257.799 295.778 257.799C294.35 257.799 293.538 257.169 293.328 255.895H294.364C294.462 256.301 294.644 256.581 294.882 256.749ZM305.387 253.669L304.323 253.683C304.155 253.291 303.889 252.969 303.539 252.731C303.175 252.479 302.825 252.367 302.461 252.367C302.097 252.367 301.775 252.423 301.523 252.535C301.257 252.647 301.033 252.815 300.837 253.011C300.417 253.445 300.207 253.963 300.207 254.551C300.207 255.139 300.417 255.657 300.837 256.091C301.257 256.525 301.761 256.749 302.363 256.749C302.755 256.749 303.105 256.637 303.441 256.441C303.777 256.231 304.029 255.951 304.225 255.601H305.331C304.981 256.595 304.309 257.253 303.329 257.603C303.021 257.715 302.671 257.757 302.279 257.757C301.887 257.757 301.495 257.673 301.117 257.505C300.725 257.337 300.403 257.099 300.123 256.805C299.507 256.161 299.213 255.419 299.213 254.537C299.213 253.669 299.507 252.913 300.123 252.283C300.725 251.653 301.481 251.331 302.363 251.331C303.063 251.331 303.693 251.555 304.267 251.989C304.813 252.423 305.191 252.983 305.387 253.669ZM307.928 249.329C308.04 249.455 308.11 249.609 308.11 249.777C308.11 249.945 308.04 250.099 307.928 250.211C307.802 250.337 307.648 250.393 307.48 250.393C307.312 250.393 307.158 250.337 307.046 250.211C306.92 250.099 306.864 249.945 306.864 249.777C306.864 249.609 306.92 249.455 307.046 249.329C307.158 249.217 307.312 249.147 307.48 249.147C307.648 249.147 307.802 249.217 307.928 249.329ZM307.984 257.617H307.004V251.457H307.984V257.617ZM315.173 254.509C315.173 253.893 314.949 253.375 314.515 252.927C314.067 252.493 313.549 252.269 312.933 252.269C312.317 252.269 311.785 252.493 311.351 252.927C310.903 253.375 310.693 253.893 310.693 254.509C310.693 255.125 310.903 255.643 311.351 256.077C311.785 256.525 312.317 256.735 312.933 256.735C313.549 256.735 314.067 256.525 314.515 256.077C314.949 255.643 315.173 255.125 315.173 254.509ZM316.153 254.509C316.153 255.405 315.831 256.161 315.201 256.777C314.571 257.407 313.801 257.715 312.933 257.715C312.051 257.715 311.281 257.407 310.651 256.777C310.021 256.161 309.713 255.405 309.713 254.509C309.713 253.627 310.021 252.871 310.651 252.241C311.281 251.611 312.037 251.289 312.933 251.289C313.815 251.289 314.571 251.611 315.201 252.241C315.831 252.871 316.153 253.627 316.153 254.509ZM322.086 256.567C321.624 257.351 320.938 257.757 320.028 257.757C319.328 257.757 318.796 257.519 318.404 257.071C318.012 256.609 317.83 256.035 317.83 255.321V251.471H318.81V255.321C318.81 255.713 318.894 256.063 319.076 256.343C319.258 256.623 319.566 256.777 319.986 256.777C320.742 256.777 321.288 256.525 321.596 256.049C321.918 255.559 322.086 254.901 322.086 254.033V251.457H323.066V257.617H322.086V256.567ZM325.835 256.749C326.087 256.917 326.409 257.001 326.787 257.001C327.683 257.001 328.131 256.665 328.131 255.993C328.131 255.601 327.809 255.293 327.179 255.083C326.899 254.999 326.605 254.915 326.297 254.845C325.989 254.761 325.695 254.663 325.415 254.537C325.107 254.397 324.869 254.215 324.701 253.977C324.547 253.753 324.463 253.487 324.463 253.193C324.463 252.577 324.687 252.115 325.107 251.793C325.541 251.485 326.059 251.331 326.647 251.331C327.249 251.331 327.739 251.443 328.145 251.695C328.537 251.933 328.803 252.367 328.929 252.997H327.879C327.781 252.647 327.613 252.423 327.403 252.311C327.193 252.199 326.927 252.143 326.619 252.143C326.325 252.143 326.059 252.199 325.835 252.339C325.611 252.465 325.499 252.675 325.499 252.955C325.499 253.235 325.597 253.431 325.779 253.557C325.961 253.683 326.185 253.795 326.465 253.879C326.731 253.963 327.025 254.047 327.333 254.117C327.655 254.187 327.949 254.285 328.215 254.411C328.859 254.719 329.167 255.195 329.167 255.867C329.167 256.525 328.929 257.015 328.453 257.337C328.215 257.491 327.963 257.603 327.669 257.687C327.375 257.771 327.067 257.799 326.731 257.799C325.303 257.799 324.491 257.169 324.281 255.895H325.317C325.415 256.301 325.597 256.581 325.835 256.749ZM269.96 274.617H268.98V265.097H269.96V274.617ZM276.313 274.617V270.781C276.313 270.375 276.215 270.025 276.033 269.745C275.851 269.465 275.557 269.325 275.137 269.325C274.717 269.325 274.367 269.395 274.115 269.563C273.849 269.717 273.639 269.927 273.471 270.179C273.177 270.641 273.037 271.257 273.037 272.041V274.617H272.057V268.457H273.037V269.521C273.233 269.171 273.499 268.891 273.821 268.681C274.157 268.457 274.535 268.331 274.983 268.331C275.417 268.331 275.767 268.401 276.047 268.527C276.313 268.653 276.537 268.821 276.733 269.045C277.097 269.479 277.293 270.053 277.293 270.767V274.617H276.313ZM278.41 269.367V268.457H279.95V266.063H280.93V268.457H282.456V269.367H280.93V274.617H279.95V269.367H278.41ZM289.807 271.397V271.929H284.389C284.473 272.447 284.739 272.881 285.159 273.231C285.579 273.567 286.055 273.749 286.587 273.749C286.937 273.749 287.273 273.665 287.595 273.497C287.917 273.329 288.183 273.105 288.407 272.811H289.527C289.261 273.399 288.869 273.875 288.337 274.211C287.805 274.547 287.273 274.715 286.727 274.715C286.181 274.715 285.719 274.631 285.327 274.463C284.935 274.295 284.599 274.071 284.305 273.777C283.675 273.161 283.367 272.405 283.367 271.509C283.367 270.627 283.675 269.871 284.305 269.241C284.935 268.611 285.691 268.289 286.587 268.289C287.441 268.289 288.197 268.597 288.827 269.199C289.471 269.829 289.807 270.557 289.807 271.397ZM288.771 271.089C288.645 270.557 288.393 270.123 287.973 269.773C287.567 269.437 287.105 269.269 286.587 269.269C285.775 269.269 285.145 269.633 284.697 270.361C284.557 270.585 284.459 270.823 284.403 271.089H288.771ZM294.58 269.731C294.342 269.535 294.104 269.423 293.852 269.423C293.6 269.423 293.376 269.507 293.194 269.647C293.012 269.787 292.858 269.969 292.746 270.179C292.508 270.585 292.396 271.033 292.396 271.537V274.617H291.416V268.457H292.396V269.731L292.438 269.479C292.76 268.723 293.264 268.331 293.964 268.331C294.174 268.331 294.384 268.373 294.58 268.457V269.731ZM300.664 271.537C300.664 270.949 300.454 270.417 300.034 269.969C299.614 269.521 299.096 269.297 298.494 269.297C297.878 269.297 297.36 269.521 296.94 269.969C296.52 270.417 296.324 270.949 296.324 271.537C296.324 272.139 296.52 272.671 296.94 273.105C297.36 273.553 297.878 273.777 298.494 273.777C299.096 273.777 299.614 273.553 300.034 273.105C300.454 272.671 300.664 272.139 300.664 271.537ZM301.644 274.617H300.664V273.567C300.608 273.651 300.538 273.721 300.482 273.777C299.894 274.435 299.18 274.757 298.34 274.757C297.486 274.757 296.772 274.435 296.184 273.777C295.624 273.147 295.344 272.405 295.344 271.537C295.344 270.683 295.624 269.941 296.184 269.297C296.772 268.653 297.486 268.317 298.34 268.317C299.18 268.317 299.894 268.653 300.482 269.297C300.538 269.367 300.608 269.437 300.664 269.521V268.457H301.644V274.617ZM309.502 270.669L308.438 270.683C308.27 270.291 308.004 269.969 307.654 269.731C307.29 269.479 306.94 269.367 306.576 269.367C306.212 269.367 305.89 269.423 305.638 269.535C305.372 269.647 305.148 269.815 304.952 270.011C304.532 270.445 304.322 270.963 304.322 271.551C304.322 272.139 304.532 272.657 304.952 273.091C305.372 273.525 305.876 273.749 306.478 273.749C306.87 273.749 307.22 273.637 307.556 273.441C307.892 273.231 308.144 272.951 308.34 272.601H309.446C309.096 273.595 308.424 274.253 307.444 274.603C307.136 274.715 306.786 274.757 306.394 274.757C306.002 274.757 305.61 274.673 305.232 274.505C304.84 274.337 304.518 274.099 304.238 273.805C303.622 273.161 303.328 272.419 303.328 271.537C303.328 270.669 303.622 269.913 304.238 269.283C304.84 268.653 305.596 268.331 306.478 268.331C307.178 268.331 307.808 268.555 308.382 268.989C308.928 269.423 309.306 269.983 309.502 270.669ZM310.279 269.367V268.457H311.819V266.063H312.799V268.457H314.325V269.367H312.799V274.617H311.819V269.367H310.279ZM316.65 266.329C316.762 266.455 316.832 266.609 316.832 266.777C316.832 266.945 316.762 267.099 316.65 267.211C316.524 267.337 316.37 267.393 316.202 267.393C316.034 267.393 315.88 267.337 315.768 267.211C315.642 267.099 315.586 266.945 315.586 266.777C315.586 266.609 315.642 266.455 315.768 266.329C315.88 266.217 316.034 266.147 316.202 266.147C316.37 266.147 316.524 266.217 316.65 266.329ZM316.706 274.617H315.726V268.457H316.706V274.617ZM323.895 271.509C323.895 270.893 323.671 270.375 323.237 269.927C322.789 269.493 322.271 269.269 321.655 269.269C321.039 269.269 320.507 269.493 320.073 269.927C319.625 270.375 319.415 270.893 319.415 271.509C319.415 272.125 319.625 272.643 320.073 273.077C320.507 273.525 321.039 273.735 321.655 273.735C322.271 273.735 322.789 273.525 323.237 273.077C323.671 272.643 323.895 272.125 323.895 271.509ZM324.875 271.509C324.875 272.405 324.553 273.161 323.923 273.777C323.293 274.407 322.523 274.715 321.655 274.715C320.773 274.715 320.003 274.407 319.373 273.777C318.743 273.161 318.435 272.405 318.435 271.509C318.435 270.627 318.743 269.871 319.373 269.241C320.003 268.611 320.759 268.289 321.655 268.289C322.537 268.289 323.293 268.611 323.923 269.241C324.553 269.871 324.875 270.627 324.875 271.509ZM330.809 274.617V270.781C330.809 270.375 330.711 270.025 330.529 269.745C330.347 269.465 330.053 269.325 329.633 269.325C329.213 269.325 328.863 269.395 328.611 269.563C328.345 269.717 328.135 269.927 327.967 270.179C327.673 270.641 327.533 271.257 327.533 272.041V274.617H326.553V268.457H327.533V269.521C327.729 269.171 327.995 268.891 328.317 268.681C328.653 268.457 329.031 268.331 329.479 268.331C329.913 268.331 330.263 268.401 330.543 268.527C330.809 268.653 331.033 268.821 331.229 269.045C331.593 269.479 331.789 270.053 331.789 270.767V274.617H330.809Z" fill="black"/>
<circle cx="82.7528" cy="152.63" r="3" transform="rotate(-33.8426 82.7528 152.63)" fill="#323328"/>
<circle cx="167.061" cy="150.947" r="3" transform="rotate(-33.8426 167.061 150.947)" fill="#323328"/>
<circle cx="234.593" cy="199.317" r="3" transform="rotate(-33.8426 234.593 199.317)" fill="#323328"/>
<circle cx="258.487" cy="285.741" r="3" transform="rotate(-33.8426 258.487 285.741)" fill="#323328"/>
</svg>
