<svg width="100" height="17" viewBox="0 0 100 17" fill="none" xmlns="http://www.w3.org/2000/svg">
<path d="M2.28037 2.10176H2.3468C2.89085 2.10176 3.31155 2.37379 3.60888 2.91784C6.86055 9.41487 8.49588 12.6697 8.51486 12.6824C10.1913 9.33579 11.058 7.61189 11.1149 7.51067C11.4312 7.09314 11.8203 6.88438 12.2821 6.88438C12.8199 6.88438 13.2405 7.14692 13.5442 7.67199C13.6391 7.87443 13.6865 8.05473 13.6865 8.21288V8.3742C13.6865 8.60827 13.5442 8.97519 13.2595 9.47496C11.0264 13.9603 9.88132 16.2409 9.82439 16.3168C9.62195 16.6204 9.34676 16.8292 8.99882 16.9431C8.8976 16.981 8.81219 17 8.7426 17H8.25865C7.98029 16.981 7.68296 16.8292 7.36665 16.5445C7.17686 16.3231 6.94279 15.9056 6.66444 15.2919C6.65811 15.2856 5.01014 11.9928 1.7205 5.41353C1.22073 4.42664 0.967682 3.91106 0.961356 3.86677C0.936051 3.72127 0.923399 3.59475 0.923399 3.4872C0.923399 2.94947 1.19226 2.52878 1.72999 2.22512C1.93243 2.14288 2.11589 2.10176 2.28037 2.10176ZM14.645 2.10176H14.7019C15.0625 2.10176 15.382 2.23145 15.6603 2.49082C15.945 2.78815 16.0873 3.10763 16.0873 3.44924V3.55363C16.0873 3.99646 15.8754 4.37287 15.4516 4.68286C15.2175 4.83468 14.9676 4.9106 14.7019 4.9106H14.6639C14.2148 4.9106 13.8384 4.71132 13.5347 4.31277C13.3639 4.06605 13.2785 3.80035 13.2785 3.51567V3.49669C13.2785 2.95263 13.5474 2.52878 14.0851 2.22512C14.2875 2.14288 14.4742 2.10176 14.645 2.10176ZM21.6386 0.773253H29.5717L29.6096 0.792232H29.6381C30.1126 0.792232 30.4985 1.03579 30.7958 1.52291C30.897 1.72535 30.9476 1.93411 30.9476 2.14921C30.9476 2.67428 30.6883 3.07916 30.1695 3.36384C29.9924 3.44608 29.8152 3.4872 29.6381 3.4872H21.5532C21.1736 3.4872 20.8383 3.31323 20.5473 2.96529C20.3575 2.71224 20.2626 2.45286 20.2626 2.18716V2.07329C20.2626 1.65576 20.4714 1.29833 20.8889 1.001C21.1167 0.86182 21.3413 0.792232 21.5627 0.792232H21.6006L21.6386 0.773253ZM21.6196 7.55812L25.7095 7.5771C25.9815 7.5771 26.2726 7.71628 26.5825 7.99463C26.8293 8.27931 26.9526 8.58929 26.9526 8.92458C26.9526 9.39272 26.7344 9.77546 26.2979 10.0728C26.0828 10.1993 25.874 10.2626 25.6716 10.2626H21.5342C21.1293 10.2626 20.7782 10.0601 20.4809 9.65526C20.3354 9.42752 20.2626 9.19977 20.2626 8.97203V8.85816C20.2626 8.42798 20.4872 8.05789 20.9364 7.74791C21.1641 7.63404 21.3792 7.5771 21.5817 7.5771H21.6006C21.6133 7.5771 21.6196 7.57077 21.6196 7.55812ZM29.5622 7.5771H29.6286C30.141 7.5771 30.5427 7.8428 30.8338 8.3742C30.9097 8.56399 30.9476 8.74745 30.9476 8.92458C30.9476 9.45599 30.6851 9.86403 30.16 10.1487C29.9702 10.2246 29.8026 10.2626 29.6571 10.2626H29.5242C29.094 10.2626 28.7271 10.038 28.4235 9.58884C28.3033 9.36109 28.2432 9.13651 28.2432 8.91509C28.2432 8.39634 28.5025 7.99147 29.0213 7.70046C29.2174 7.61822 29.3977 7.5771 29.5622 7.5771ZM21.6386 14.3145H29.5717C29.5717 14.3272 29.6697 14.343 29.8658 14.362C30.1948 14.4442 30.4447 14.5929 30.6155 14.808C30.8369 15.0673 30.9476 15.3647 30.9476 15.7C30.9476 16.2124 30.6883 16.6173 30.1695 16.9146C30.0113 16.9715 29.9038 17 29.8469 17H21.3634C21.142 17 20.8763 16.8513 20.5663 16.554C20.3639 16.282 20.2626 16.0068 20.2626 15.7284V15.643C20.2626 15.1749 20.4999 14.7922 20.9743 14.4948C21.1135 14.4126 21.3286 14.3556 21.6196 14.324C21.6196 14.3177 21.6259 14.3145 21.6386 14.3145ZM42.8093 0.773253H42.8852C43.3344 0.773253 43.7171 0.982018 44.0334 1.39955C44.1979 1.64627 44.2801 1.9183 44.2801 2.21563C44.2801 2.75336 44.0208 3.17405 43.502 3.47771C43.2616 3.58526 43.0465 3.63903 42.8567 3.63903C42.2874 3.63903 41.8477 3.35751 41.5377 2.79448C41.4555 2.57939 41.4144 2.38011 41.4144 2.19665C41.4144 1.66525 41.6706 1.24456 42.183 0.934571C42.4044 0.827026 42.6132 0.773253 42.8093 0.773253ZM39.4785 2.19665C39.972 2.19665 40.3642 2.44337 40.6552 2.93682C40.7438 3.14558 40.7881 3.33853 40.7881 3.51567C40.7881 4.02177 40.5382 4.41399 40.0384 4.69234C39.0768 5.37558 38.4157 6.26441 38.0551 7.35884C37.859 7.99779 37.761 8.59246 37.761 9.14284C37.761 10.4524 38.2607 11.6575 39.2603 12.7583C39.7158 13.2011 40.0827 13.4889 40.361 13.6218C41.2404 14.1152 42.1608 14.362 43.1224 14.362C44.2991 14.362 45.4094 13.9508 46.4532 13.1284C46.6809 12.9955 46.9118 12.9291 47.1459 12.9291C47.6647 12.9291 48.0664 13.1916 48.351 13.7167C48.427 13.9002 48.4649 14.0805 48.4649 14.2576C48.4649 14.789 48.1613 15.2287 47.5539 15.5766C47.1301 15.8676 46.7442 16.0954 46.3962 16.2598C45.9914 16.4496 45.6118 16.6014 45.2575 16.7153C44.5553 16.9051 44.0366 17 43.7013 17H42.5056C42.0185 17 41.291 16.8482 40.3231 16.5445C38.4568 15.8803 37.0081 14.5676 35.977 12.6064C35.4013 11.4614 35.1134 10.3037 35.1134 9.13335C35.1134 7.77321 35.4519 6.44787 36.1288 5.15732C36.3502 4.75244 36.6855 4.30012 37.1347 3.80035C37.5712 3.33853 37.9065 3.02855 38.1405 2.87039C38.6783 2.43388 39.0863 2.21563 39.3647 2.21563L39.4785 2.19665ZM52.384 0.773253H57.8878C58.3496 0.773253 58.7324 1.01049 59.036 1.48495C59.1436 1.70004 59.1973 1.90565 59.1973 2.10176V15.6905C59.1973 16.1966 58.9411 16.5983 58.4287 16.8956C58.2579 16.9652 58.1377 17 58.0681 17H57.6031C57.3817 16.9873 57.1318 16.8608 56.8535 16.6204C56.6004 16.3547 56.4739 16.0005 56.4739 15.5576V3.4872H52.365C51.9412 3.4872 51.5711 3.26895 51.2548 2.83244C51.1283 2.57306 51.065 2.33899 51.065 2.13023C51.065 1.66209 51.2801 1.27619 51.7103 0.972529C51.938 0.839678 52.1626 0.773253 52.384 0.773253ZM63.2018 0.773253H63.3062C63.7364 0.773253 64.1097 0.99467 64.426 1.43751C64.5462 1.66525 64.6063 1.90248 64.6063 2.14921C64.6063 2.63632 64.3659 3.03171 63.8851 3.33537C63.67 3.43659 63.4739 3.4872 63.2967 3.4872H63.1924C62.7305 3.4872 62.351 3.25313 62.0536 2.78499C61.9398 2.56357 61.8828 2.34215 61.8828 2.12074C61.8828 1.63362 62.1169 1.24139 62.585 0.944061C62.7938 0.830189 62.9994 0.773253 63.2018 0.773253ZM75.1584 0.773253H75.2912C75.8479 0.773253 76.3287 1.11171 76.7336 1.78861C77.4105 2.79448 77.749 3.89208 77.749 5.08141V5.11936C77.749 6.58072 77.2492 7.89341 76.2497 9.05743C75.7499 9.56353 75.4051 9.86719 75.2153 9.96841C74.9117 10.1772 74.6207 10.3448 74.3423 10.4713V10.4903C76.2845 12.9765 77.3441 14.343 77.5212 14.5897C77.6604 14.8554 77.73 15.099 77.73 15.3204V15.4817C77.73 16.0068 77.458 16.4528 76.9139 16.8197C76.6672 16.9399 76.4869 17 76.373 17H75.8321C75.5475 16.9747 75.247 16.8197 74.9306 16.535C72.0522 12.8468 70.5845 10.9553 70.5276 10.8604C70.4137 10.601 70.3568 10.3417 70.3568 10.0823V9.94943C70.3568 9.33579 70.6383 8.79806 71.2013 8.33625C71.5683 8.08952 71.913 7.96616 72.2357 7.96616C72.5267 7.90923 72.7766 7.83647 72.9853 7.74791C73.6559 7.42527 74.1462 6.93183 74.4562 6.26757C74.6143 5.86902 74.6934 5.51792 74.6934 5.21426V5.16681C74.6934 5.14151 74.6966 5.12253 74.7029 5.10987L74.6934 5.04345V4.996C74.6934 4.4646 74.51 3.9332 74.143 3.4018C74.1494 3.38282 74.1525 3.37017 74.1525 3.36384C73.8552 3.07283 73.7065 2.71856 73.7065 2.30103V2.27257C73.7065 1.74116 73.9501 1.31414 74.4372 0.991507C74.6776 0.846004 74.918 0.773253 75.1584 0.773253ZM91.0151 0.915593H91.1289C91.6224 0.915593 92.0304 1.16232 92.353 1.65576C94.7633 6.44471 95.9843 8.88979 96.0159 8.99101C96.1045 9.30099 96.1488 9.48762 96.1488 9.55088C96.1488 10.1202 95.8736 10.5662 95.3232 10.8889C95.0891 11.0027 94.8582 11.0597 94.6305 11.0597C94.137 11.0597 93.7227 10.8351 93.3874 10.3859C93.3494 10.329 92.6757 8.98785 91.3662 6.36247C91.2776 6.2739 91.1795 6.22962 91.072 6.22962C90.8695 6.22962 90.7051 6.40675 90.5785 6.76102L85.72 16.3737C85.5302 16.6584 85.2519 16.8608 84.8849 16.981C84.8343 16.9937 84.7901 17 84.7521 17H84.2492C84.0277 17 83.7652 16.8735 83.4615 16.6204C83.1579 16.3104 83.0061 15.9498 83.0061 15.5386C83.0061 15.254 83.2212 14.7162 83.6513 13.9255C83.6513 13.9065 85.3278 10.5567 88.6807 3.87626C89.4145 2.39593 89.8099 1.61464 89.8668 1.5324C90.2021 1.12119 90.5849 0.915593 91.0151 0.915593ZM97.6006 14.1058H97.724C98.2048 14.1058 98.6065 14.3462 98.9292 14.8269C99.0683 15.0863 99.1379 15.3299 99.1379 15.5576C99.1379 16.108 98.8722 16.5445 98.3408 16.8671C98.151 16.9557 98.0087 17 97.9138 17H97.4203C97.1926 17 96.9206 16.8608 96.6043 16.5825C96.3322 16.2725 96.1962 15.934 96.1962 15.5671C96.1962 15.099 96.3955 14.7036 96.7941 14.3809C97.0661 14.1975 97.3349 14.1058 97.6006 14.1058Z" fill="black"/>
</svg>
