<svg width="24" height="24" viewBox="0 0 24 24" fill="none" xmlns="http://www.w3.org/2000/svg">
<path d="M0 2.0035C1.34846e-05 1.6368 0.100895 1.27717 0.29161 0.96393C0.482325 0.650694 0.755528 0.395925 1.08134 0.227487C1.40715 0.0590493 1.77301 -0.0165697 2.13892 0.00890178C2.50483 0.0343733 2.85668 0.159954 3.156 0.371908L17.156 10.2955C17.4161 10.4793 17.6284 10.7226 17.7755 11.0051C17.9225 11.2875 17.9999 11.601 18.0013 11.9194C18.0027 12.2379 17.9279 12.552 17.7833 12.8358C17.6388 13.1195 17.4285 13.3646 17.17 13.5507L3.17 23.6222C2.87133 23.8375 2.51899 23.9663 2.15179 23.9942C1.7846 24.0222 1.41682 23.9482 1.08899 23.7805C0.761154 23.6128 0.485999 23.3579 0.293848 23.0438C0.101697 22.7297 1.22596e-05 22.3687 0 22.0006V2.0035ZM24 0.999753C24 0.734602 23.8946 0.480311 23.7071 0.292821C23.5196 0.105331 23.2652 0 23 0C22.7348 0 22.4804 0.105331 22.2929 0.292821C22.1054 0.480311 22 0.734602 22 0.999753V22.9943C22 23.2595 22.1054 23.5138 22.2929 23.7012C22.4804 23.8887 22.7348 23.9941 23 23.9941C23.2652 23.9941 23.5196 23.8887 23.7071 23.7012C23.8946 23.5138 24 23.2595 24 22.9943V0.999753Z" fill="white" fill-opacity="0.7"/>
</svg>
