<svg width="40" height="40" viewBox="0 0 40 40" fill="none" xmlns="http://www.w3.org/2000/svg">
<rect x="0.5" y="0.5" width="39" height="39" rx="19.5" stroke="white" stroke-opacity="0.7"/>
<path d="M13.3334 6.66666C13.7416 6.66671 14.1356 6.81658 14.4406 7.08785C14.7457 7.35911 14.9406 7.7329 14.9884 8.13832L15 8.33332V31.6667C14.9995 32.0915 14.8369 32.5 14.5453 32.8089C14.2537 33.1178 13.8551 33.3037 13.431 33.3286C13.007 33.3535 12.5894 33.2155 12.2636 32.9429C11.9379 32.6702 11.7285 32.2835 11.6784 31.8617L11.6667 31.6667V8.33332C11.6667 7.8913 11.8423 7.46737 12.1548 7.15481C12.4674 6.84225 12.8913 6.66666 13.3334 6.66666ZM26.6667 6.66666C27.0749 6.66671 27.4689 6.81658 27.774 7.08785C28.079 7.35911 28.2739 7.7329 28.3217 8.13832L28.3334 8.33332V31.6667C28.3329 32.0915 28.1702 32.5 27.8786 32.8089C27.587 33.1178 27.1884 33.3037 26.7644 33.3286C26.3403 33.3535 25.9227 33.2155 25.597 32.9429C25.2712 32.6702 25.0619 32.2835 25.0117 31.8617L25 31.6667V8.33332C25 7.8913 25.1756 7.46737 25.4882 7.15481C25.8007 6.84225 26.2247 6.66666 26.6667 6.66666Z" fill="white" fill-opacity="0.7"/>
</svg>
