<svg width="20" height="24" viewBox="0 0 20 24" fill="none" xmlns="http://www.w3.org/2000/svg">
<path d="M0.909091 0C1.1502 0 1.38143 0.0972524 1.55192 0.270363C1.7224 0.443473 1.81818 0.678262 1.81818 0.923077V23.0769C1.81818 23.3217 1.7224 23.5565 1.55192 23.7296C1.38143 23.9028 1.1502 24 0.909091 24C0.667985 24 0.436754 23.9028 0.266266 23.7296C0.0957788 23.5565 0 23.3217 0 23.0769V0.923077C0 0.678262 0.0957788 0.443473 0.266266 0.270363C0.436754 0.0972524 0.667985 0 0.909091 0ZM16.5539 1.80185C17.943 0.673231 20 1.67877 20 3.48431V20.5157C20 22.3225 17.943 23.3268 16.5539 22.1982L6.06909 13.6812C5.82091 13.4794 5.62058 13.2236 5.48292 12.9326C5.34525 12.6416 5.27378 12.3228 5.27378 12C5.27378 11.6772 5.34525 11.3585 5.48292 11.0674C5.62058 10.7764 5.82091 10.5206 6.06909 10.3188L16.5539 1.80185Z" fill="white" fill-opacity="0.7"/>
</svg>
