<svg width="24" height="22" viewBox="0 0 24 22" fill="none" xmlns="http://www.w3.org/2000/svg">
<path d="M22.2847 7.06741C22.6058 7.06745 22.9157 7.18533 23.1556 7.39868C23.3955 7.61204 23.5488 7.90603 23.5864 8.2249L23.5955 8.37827V14.9326C23.5956 16.2779 23.0785 17.5717 22.1513 18.5464C21.2242 19.5211 19.9578 20.1022 18.6143 20.1695L18.3521 20.176H6.69458L6.66836 20.7201L6.6238 21.4004C6.5884 21.854 6.16237 22.1305 5.79664 21.9378L5.39552 21.7229L4.9236 21.4568L4.66405 21.3034L4.10038 20.9586L3.80019 20.7659L3.19326 20.3596L2.91798 20.1669L2.42379 19.809L2.01086 19.4944L1.83652 19.3581C1.52716 19.1116 1.54158 18.6161 1.86667 18.3592L2.23371 18.0747L2.67941 17.7444L3.20375 17.3747L3.80151 16.9749L4.40712 16.5935L4.95244 16.267L5.43091 15.9983L5.83334 15.782C6.19383 15.5946 6.58185 15.8292 6.61724 16.2539L6.65001 16.7088L6.68147 17.2528L6.69458 17.5543H18.3521C19.0135 17.5545 19.6506 17.3047 20.1356 16.855C20.6206 16.4052 20.9177 15.7888 20.9673 15.1292L20.9738 14.9326V8.37827C20.9738 8.03061 21.1119 7.69719 21.3578 7.45135C21.6036 7.20552 21.937 7.06741 22.2847 7.06741ZM17.7989 0.0608413L18.2 0.277134L18.6719 0.543239L18.9315 0.69661L19.4952 1.04137L19.7954 1.23406L20.4023 1.64043L20.6776 1.83313L21.1718 2.191L21.5847 2.5056L21.759 2.64193C22.0684 2.88837 22.054 3.38388 21.7289 3.64081L21.3618 3.92527L20.9161 4.25561L20.3918 4.62527L19.794 5.02508L19.1884 5.40654L18.6431 5.73295L18.1646 6.00168L17.7622 6.21797C17.4017 6.40542 17.0124 6.17078 16.9783 5.74606L16.9455 5.29119L16.9141 4.74718L16.901 4.44568H5.24346C4.54813 4.44568 3.88128 4.7219 3.38961 5.21357C2.89794 5.70524 2.62173 6.37208 2.62173 7.06741V13.6217C2.62173 13.9694 2.48362 14.3028 2.23778 14.5486C1.99195 14.7945 1.65853 14.9326 1.31086 14.9326C0.963201 14.9326 0.629778 14.7945 0.383943 14.5486C0.138108 14.3028 0 13.9694 0 13.6217V7.06741C0 5.67676 0.552434 4.34306 1.53577 3.35973C2.51911 2.37639 3.8528 1.82395 5.24346 1.82395H16.901L16.9272 1.27994L16.956 0.808034L16.9718 0.599606C17.0071 0.146048 17.4332 -0.131856 17.7989 0.0608413Z" fill="white" fill-opacity="0.7"/>
</svg>
