<svg width="24" height="24" viewBox="0 0 24 24" fill="none" xmlns="http://www.w3.org/2000/svg">
<path d="M20.1506 3.48601C19.8129 3.30716 19.4222 3.56563 19.3897 3.98946C19.3656 4.29815 19.3415 4.68401 19.3246 5.13357H18.8181C17.6982 5.13338 16.6004 5.45004 15.6477 6.04805C14.695 6.64607 13.9251 7.5018 13.4243 8.51934L12.2184 10.9692L11.0125 8.51934C10.5118 7.50199 9.74206 6.64638 8.7896 6.04837C7.83714 5.45037 6.73957 5.13361 5.61986 5.13357H3.7773C3.45748 5.13357 3.15076 5.26263 2.92462 5.49235C2.69847 5.72207 2.57143 6.03364 2.57143 6.35852C2.57143 6.6834 2.69847 6.99497 2.92462 7.22469C3.15076 7.45441 3.45748 7.58347 3.7773 7.58347H5.61986C6.29139 7.58372 6.94959 7.77384 7.52078 8.13253C8.09198 8.49123 8.55361 9.00435 8.85401 9.61444L10.8702 13.7082L8.85642 17.802C8.55575 18.4127 8.09355 18.9262 7.52166 19.2849C6.94977 19.6436 6.2908 19.8334 5.61866 19.833H3.7773C3.45748 19.833 3.15076 19.962 2.92462 20.1918C2.69847 20.4215 2.57143 20.7331 2.57143 21.0579C2.57143 21.3828 2.69847 21.6944 2.92462 21.9241C3.15076 22.1538 3.45748 22.2829 3.7773 22.2829H5.61986C6.73957 22.2829 7.83714 21.9661 8.7896 21.3681C9.74206 20.7701 10.5118 19.9145 11.0125 18.8971L12.2184 16.4472L13.4243 18.8971C13.925 19.9145 14.6947 20.7701 15.6472 21.3681C16.5996 21.9661 17.6972 22.2829 18.8169 22.2829H19.3246C19.3439 22.768 19.3704 23.1796 19.3969 23.4981C19.4283 23.8949 19.7852 24.1142 20.1168 23.939C20.5606 23.7038 21.2093 23.3364 21.9859 22.8243C22.5982 22.4207 23.1921 21.9891 23.7658 21.5308C24.0648 21.2907 24.0781 20.8277 23.7935 20.5974C23.2127 20.1294 22.6099 19.6904 21.9871 19.2818C21.392 18.8876 20.7792 18.5218 20.1506 18.1854C19.8129 18.0066 19.4222 18.2651 19.3897 18.6889C19.3656 18.9976 19.3415 19.3834 19.3246 19.833H18.8181C18.1462 19.8332 17.4875 19.6433 16.9158 19.2846C16.3441 18.9259 15.8821 18.4125 15.5816 17.802L13.5665 13.7082L15.5803 9.61444C15.881 9.00379 16.3432 8.4903 16.9151 8.13157C17.487 7.77283 18.146 7.58304 18.8181 7.58347H19.3258C19.3451 8.06855 19.3716 8.48014 19.3981 8.79862C19.4295 9.19551 19.7864 9.41478 20.118 9.23961C20.5618 9.00442 21.2106 8.63693 21.9871 8.1249C22.5994 7.7213 23.1933 7.28967 23.767 6.83135C24.0661 6.59126 24.0793 6.12823 23.7947 5.89794C23.2139 5.42998 22.6111 4.99093 21.9883 4.58234C21.3932 4.18817 20.7804 3.82233 20.1518 3.48601H20.1506Z" fill="white" fill-opacity="0.7"/>
</svg>
