<svg width="29" height="20" viewBox="0 0 29 20" fill="none" xmlns="http://www.w3.org/2000/svg">
<path d="M9.175 8.9C11.275 9.875 12.425 11.825 12.425 14.175C12.425 17.925 9.425 20 6.225 20C6.225 20 6.225 20 6.2 20V16.4C6.225 16.4 6.225 16.4 6.225 16.4C7.55 16.4 8.725 15.5 8.725 14.175C8.725 12.7 7.35 11.8 6.225 11.75C6.05 11.75 4.7 11.75 3.25 11.075C1.175 10.125 0 8.35 0 6.025C0 2.275 3.025 -2.98023e-07 6.225 -2.98023e-07C9.65 -2.98023e-07 12.3 2.3 12.35 5.7C12.375 5.775 12.25 5.9 12.075 5.9H8.95C8.8 5.9 8.675 5.775 8.675 5.7C8.625 4.275 7.525 3.6 6.225 3.6C4.85 3.6 3.725 4.425 3.725 6.025C3.725 7.475 4.95 8.225 6.225 8.225C6.35 8.225 7.75 8.225 9.175 8.9ZM16.8865 8.675H13.0615V0.225C13.0615 0.125 13.1865 -2.98023e-07 13.3365 -2.98023e-07H16.6115C16.7865 -2.98023e-07 16.8865 0.125 16.8865 0.225V8.125V8.675ZM28.0115 -2.98023e-07C28.1865 -2.98023e-07 28.2865 0.125 28.2865 0.225V19.775C28.2865 19.875 28.1865 20 28.0115 20H24.7365C24.5865 20 24.4615 19.875 24.4615 19.775V16.25H16.8865V19.775C16.8865 19.875 16.7865 20 16.6115 20H13.3365C13.1865 20 13.0615 19.875 13.0615 19.775V12.5H16.8865V12.525H24.4615V11.85V8.125V0.225C24.4615 0.125 24.5865 -2.98023e-07 24.7365 -2.98023e-07H28.0115Z" fill="#242424"/>
</svg>
