<svg width="51" height="61" viewBox="0 0 51 61" fill="none" xmlns="http://www.w3.org/2000/svg">
<mask id="mask0_38_453" style="mask-type:luminance" maskUnits="userSpaceOnUse" x="7" y="3" width="37" height="41">
<path d="M7.07202 3.10001H43.792V43.9H7.07202V3.10001Z" fill="white"/>
</mask>
<g mask="url(#mask0_38_453)">
<path d="M36.8602 29.4734C37.0361 29.3879 37.2071 29.2885 37.375 29.1764L38.0359 28.7913L38.7244 28.2558L38.7674 28.2122C39.0378 27.9407 39.3385 27.8106 39.6679 27.8196C39.8129 27.8196 39.9824 27.8579 40.1752 27.9344L42.6424 25.7414C42.7051 25.6866 42.7725 25.6383 42.8448 25.5963H42.8575C43.1189 25.4433 43.3372 25.4508 43.5104 25.6255C43.8201 25.7913 43.8446 26.0718 43.5832 26.467L41.0003 28.7594C41.0194 28.7976 41.0295 28.8359 41.0295 28.8741C41.0677 29.0489 41.055 29.2221 40.9859 29.3841C40.9275 29.4989 40.8584 29.611 40.7389 29.7183L40.4047 30.0524L38.9093 31.141L38.5013 31.4024L37.9913 31.6855L37.7591 31.7875C37.2921 31.9862 36.8076 32.119 36.3083 32.1865C36.0761 34.1409 35.4078 35.9414 34.3065 37.5861C32.9125 39.6389 31.0064 41.2007 28.5881 42.2744C26.1656 43.348 23.571 43.8862 20.7644 43.8862C16.8937 43.8479 13.7546 42.9756 11.3448 41.2724C8.54886 39.2983 7.13733 36.6718 7.13733 33.3929V32.9424C7.23402 30.7075 7.89224 28.5883 9.11092 26.5855C10.3094 24.6018 12.0663 23.2615 14.3793 22.5655C15.5688 22.2176 16.7636 22.0555 17.9647 22.0555C19.2041 22.0555 20.4802 22.2824 21.7961 22.7377C23.112 23.1929 24.5974 23.9744 26.2522 25.0884L30.5617 27.9763C31.7602 28.7604 32.8567 29.2922 33.8422 29.5727C33.6382 27.571 32.9115 25.8561 31.6646 24.4345C30.4151 22.9937 28.8251 21.9381 26.8897 21.2698L25.032 20.6323C23.3288 20.0331 22.0612 19.4429 21.2287 18.8601C18.9847 17.3428 17.7352 15.2561 17.484 12.6051L17.4404 11.821C17.4404 9.26569 18.4758 7.12901 20.5466 5.4051C22.4017 3.86872 24.5947 3.10001 27.141 3.10001C29.0572 3.10001 30.7748 3.65197 32.292 4.75485C33.822 5.86782 34.6864 7.43235 34.8904 9.4851L34.9334 10.2836C34.9334 11.7626 34.5509 13.0312 33.7859 14.0868C33.0018 15.1413 32.3111 15.6678 31.7103 15.6678C31.5828 15.6588 31.4643 15.6423 31.3533 15.6168L28.6466 18.1641C28.2104 18.4191 27.9161 18.3628 27.7615 18.034C27.6085 17.8592 27.634 17.6424 27.8051 17.3811L27.8178 17.3683C27.8561 17.3099 27.9097 17.2472 27.9772 17.1797L30.4953 14.7918C30.465 14.6653 30.448 14.5368 30.4443 14.4066C30.4427 14.2462 30.4757 14.0932 30.5447 13.9476C30.6133 13.8026 30.7105 13.6799 30.8359 13.5794C31.9387 12.5924 32.4907 11.455 32.4907 10.1688C32.4907 8.89116 32.0062 7.81751 31.0399 6.94679C30.0735 6.07607 28.7512 5.63088 27.0773 5.61176C24.9863 5.61176 23.2698 6.24023 21.9263 7.49876C20.5822 8.75729 19.9128 10.2655 19.9128 12.025C19.9128 13.4477 20.4611 14.728 21.5523 15.8718C22.636 17.0039 24.3105 17.8937 26.5758 18.5429C29.7505 19.4609 32.1858 21.01 33.8475 23.1876C35.3393 25.1001 36.168 27.2751 36.3439 29.6774C36.5208 29.6227 36.6924 29.5552 36.8586 29.4744L36.8602 29.4734ZM28.0282 17.3391C28.0282 17.4257 28.0765 17.4693 28.1738 17.4693C28.1839 17.4693 28.9473 16.7627 30.4688 15.3501C30.4688 15.1562 30.0608 15.4229 29.2495 16.1486L28.0309 17.338L28.0282 17.3391ZM28.6657 17.8464C28.6657 17.7699 28.6275 17.7317 28.551 17.7317C28.4644 17.7317 28.3852 17.7753 28.3188 17.8619C28.1631 17.8518 28.051 17.8719 27.9846 17.9208C27.9554 17.9399 27.9416 17.9591 27.9416 17.9793C27.9416 18.0377 27.9799 18.0813 28.0564 18.1094H28.3177C28.5499 18.0228 28.6657 17.9346 28.6657 17.848V17.8464ZM30.4661 16.2654C30.4661 16.0423 30.336 16.0423 30.0746 16.2654C29.9078 16.4238 29.7484 16.5879 29.5954 16.759C29.5274 16.8073 29.3871 16.9375 29.1746 17.1505C28.9515 17.3827 28.8405 17.5229 28.8405 17.5713L28.8532 17.6733C28.9117 17.6924 28.9499 17.7025 28.968 17.7025C28.9781 17.7025 29.2294 17.4703 29.7229 17.0065L30.4624 16.267L30.4661 16.2654ZM43.1954 25.8306L40.7564 27.979C40.902 28.0555 41.0077 28.1676 41.0752 28.3131L43.4977 26.1648C43.5168 26.0681 43.503 25.99 43.4546 25.9326C43.3787 25.8827 43.2963 25.8492 43.2071 25.8322L43.1954 25.8306ZM43.0658 25.7578L43.0068 25.6994L40.8584 27.4408L40.9886 27.6002L43.0642 25.7568L43.0658 25.7578ZM33.805 32.1009C33.1994 31.9479 32.6092 31.7493 32.0344 31.5059C30.8151 31.0124 29.3005 30.1518 27.4916 28.9225L24.5156 26.9053C23.257 26.1021 22.1111 25.5028 21.0757 25.1054C20.0302 24.7187 19.0049 24.5253 17.9993 24.5253H17.5631C15.0004 24.6603 13.005 25.6218 11.5706 27.4132C10.2446 29.068 9.58161 31.0214 9.58161 33.2782C9.58161 35.8128 10.5979 37.7965 12.6289 39.2282C14.6508 40.6689 17.4229 41.3909 20.9456 41.3909C23.7123 41.3909 26.0456 40.8974 27.9416 39.9119C29.8286 38.9249 31.2949 37.6169 32.3404 35.9924C33.1245 34.7556 33.6074 33.4578 33.7912 32.1036L33.805 32.1009Z" fill="black"/>
</g>
<path d="M8.19 49.426C8.19 48.8193 8.43733 48.292 8.932 47.844C9.42667 47.396 10.0987 47.172 10.948 47.172C11.8067 47.172 12.5253 47.4007 13.104 47.858C13.692 48.306 14.0047 48.978 14.042 49.874C14.042 49.9487 14.014 50.0187 13.958 50.084C13.902 50.14 13.8367 50.168 13.762 50.168H13.622C13.5567 50.168 13.496 50.1447 13.44 50.098C13.384 50.042 13.3513 49.9767 13.342 49.902C13.314 49.1927 13.076 48.6793 12.628 48.362C12.18 48.0353 11.6433 47.872 11.018 47.872C10.346 47.872 9.82333 48.026 9.45 48.334C9.07667 48.642 8.89 49.0247 8.89 49.482C8.89 49.93 9.02067 50.2893 9.282 50.56C9.646 50.924 10.3227 51.2973 11.312 51.68C12.488 52.1467 13.272 52.6133 13.664 53.08C13.9627 53.4347 14.112 53.9433 14.112 54.606C14.112 55.2687 13.8413 55.838 13.3 56.314C12.768 56.7807 12.0073 57.014 11.018 57.014C10.2807 57.014 9.58533 56.8133 8.932 56.412C8.58667 56.1973 8.302 55.8987 8.078 55.516C7.86333 55.124 7.74667 54.676 7.728 54.172C7.728 53.976 7.82133 53.878 8.008 53.878H8.134C8.302 53.878 8.39533 53.9667 8.414 54.144C8.43267 54.5547 8.53533 54.914 8.722 55.222C8.90867 55.5207 9.142 55.7447 9.422 55.894C9.96333 56.1833 10.556 56.328 11.2 56.328C11.8533 56.328 12.3853 56.16 12.796 55.824C13.216 55.4787 13.426 55.0493 13.426 54.536C13.426 54.0133 13.258 53.612 12.922 53.332C12.6513 53.108 12.3573 52.9167 12.04 52.758C11.6293 52.562 10.9853 52.2867 10.108 51.932C9.436 51.6333 8.946 51.2927 8.638 50.91C8.33933 50.518 8.19 50.0233 8.19 49.426ZM25.027 47.2H25.181C25.2836 47.2 25.3536 47.2327 25.391 47.298C25.4376 47.354 25.461 47.4053 25.461 47.452C25.461 47.4893 25.4563 47.522 25.447 47.55L22.941 56.552C22.8476 56.86 22.6516 57.014 22.353 57.014C22.0636 57.014 21.877 56.86 21.793 56.552L20.071 50.392L18.349 56.58C18.2463 56.8693 18.055 57.014 17.775 57.014C17.5043 57.014 17.3176 56.8693 17.215 56.58L14.569 47.564C14.5596 47.5267 14.555 47.4847 14.555 47.438C14.555 47.3913 14.5783 47.34 14.625 47.284C14.6623 47.228 14.7323 47.2 14.835 47.2H14.975C15.087 47.2 15.1756 47.2653 15.241 47.396L17.789 56.048L19.595 49.594C19.6696 49.3327 19.833 49.202 20.085 49.202C20.3463 49.202 20.505 49.3373 20.561 49.608C20.757 50.3173 21.0556 51.3907 21.457 52.828C21.8676 54.256 22.171 55.3247 22.367 56.034L24.761 47.41C24.7796 47.3633 24.8123 47.3167 24.859 47.27C24.915 47.2233 24.971 47.2 25.027 47.2ZM29.1198 47.564C29.2038 47.312 29.3811 47.186 29.6518 47.186C29.9318 47.186 30.1184 47.3167 30.2118 47.578L33.4318 56.622C33.4411 56.65 33.4458 56.6827 33.4458 56.72C33.4458 56.9067 33.3524 57 33.1658 57H32.9978C32.8764 57 32.7878 56.9393 32.7318 56.818L29.6798 48.124L26.6138 56.818C26.5578 56.9393 26.4691 57 26.3478 57H26.1798C25.9931 57 25.8998 56.9067 25.8998 56.72C25.8998 56.6827 25.9044 56.65 25.9138 56.622L29.1198 47.564ZM28.4618 52.688H30.8838C30.9584 52.688 31.0238 52.716 31.0798 52.772C31.1358 52.8187 31.1638 52.884 31.1638 52.968V53.094C31.1638 53.178 31.1358 53.248 31.0798 53.304C31.0238 53.3507 30.9584 53.374 30.8838 53.374H28.4618C28.2844 53.374 28.1958 53.2807 28.1958 53.094V52.968C28.1958 52.7813 28.2844 52.688 28.4618 52.688ZM39.3943 47.2H39.5483C39.6603 47.2 39.7349 47.2373 39.7723 47.312C39.8096 47.3773 39.8283 47.4333 39.8283 47.48C39.8283 47.5267 39.8143 47.5733 39.7863 47.62V47.606L37.4203 51.918C37.3456 52.03 37.2943 52.1 37.2663 52.128V56.72C37.2663 56.7947 37.2383 56.86 37.1823 56.916C37.1263 56.972 37.0609 57 36.9863 57H36.8463C36.7716 57 36.7063 56.972 36.6503 56.916C36.5943 56.86 36.5663 56.7947 36.5663 56.72V52.114C36.5196 52.0673 36.4776 52.0113 36.4403 51.946L33.8922 47.62C33.8642 47.5733 33.8502 47.5267 33.8502 47.48C33.8502 47.4333 33.8689 47.3773 33.9062 47.312C33.9436 47.2373 34.0183 47.2 34.1303 47.2H34.2983C34.3916 47.2 34.4709 47.242 34.5363 47.326L36.9163 51.414L39.1703 47.284C39.2076 47.228 39.2823 47.2 39.3943 47.2Z" fill="black"/>
</svg>
