<svg width="263" height="220" viewBox="0 0 263 220" fill="none" xmlns="http://www.w3.org/2000/svg">
<path d="M13.1917 84.2779C80.2257 132.924 165.002 151.346 248.87 135.49" stroke="#323328"/>
<circle cx="78.4195" cy="119.819" r="5.85619" transform="rotate(-26.7327 78.4195 119.819)" fill="#323328"/>
<circle cx="78.4332" cy="119.837" r="5.14336" transform="rotate(-26.7327 78.4332 119.837)" fill="white"/>
<path d="M55.1226 132.128L58.4476 125.397L60.62 126.47C61.0977 126.706 61.4537 126.99 61.6881 127.321C61.9257 127.651 62.0504 128.008 62.0621 128.393C62.077 128.776 61.9876 129.164 61.7939 129.557C61.6001 129.949 61.347 130.254 61.0344 130.473C60.7239 130.693 60.3671 130.809 59.9639 130.819C59.5606 130.83 59.1224 130.719 58.6491 130.485L56.7988 129.571L57.0764 129.009L58.9103 129.915C59.2609 130.088 59.581 130.174 59.8706 130.172C60.1624 130.172 60.4183 130.093 60.6383 129.934C60.8605 129.777 61.0441 129.551 61.1892 129.258C61.3342 128.964 61.4028 128.679 61.3949 128.403C61.3881 128.124 61.2972 127.867 61.1223 127.63C60.9496 127.395 60.6858 127.19 60.3308 127.014L58.7894 126.253L55.7371 132.432L55.1226 132.128ZM59.5905 130.557L59.7467 134.412L59.0368 134.062L58.897 130.215L59.5905 130.557ZM62.6954 136C62.2593 135.784 61.9284 135.483 61.7025 135.096C61.4788 134.711 61.369 134.276 61.3733 133.793C61.3786 133.308 61.5079 132.809 61.7612 132.296C62.0166 131.779 62.3354 131.371 62.7176 131.072C63.1008 130.77 63.5131 130.593 63.9544 130.538C64.3989 130.482 64.8392 130.562 65.2752 130.778C65.7112 130.993 66.0411 131.294 66.2648 131.679C66.4885 132.065 66.5977 132.501 66.5924 132.986C66.5893 133.472 66.46 133.974 66.2045 134.491C65.9513 135.004 65.6335 135.41 65.2514 135.709C64.8703 136.006 64.4575 136.182 64.0129 136.238C63.5706 136.295 63.1314 136.215 62.6954 136ZM62.96 135.464C63.3106 135.637 63.654 135.69 63.9903 135.621C64.3266 135.553 64.6345 135.393 64.9142 135.142C65.1961 134.891 65.4301 134.577 65.6163 134.201C65.8024 133.824 65.9099 133.446 65.9387 133.068C65.9697 132.691 65.9106 132.347 65.7616 132.036C65.6126 131.725 65.3628 131.483 65.0122 131.31C64.6638 131.138 64.3199 131.086 63.9803 131.156C63.6429 131.226 63.3328 131.388 63.0498 131.641C62.7691 131.895 62.5356 132.21 62.3494 132.587C62.1633 132.964 62.0552 133.339 62.0254 133.714C61.9976 134.091 62.0589 134.433 62.209 134.741C62.3591 135.05 62.6094 135.291 62.96 135.464ZM70.7354 133.561L70.4837 134.07L68.0747 132.88L68.3263 132.371L70.7354 133.561ZM69.6764 131.533L70.2647 131.824L67.8245 136.763C67.7206 136.974 67.675 137.157 67.6878 137.313C67.7017 137.467 67.7542 137.598 67.8454 137.706C67.9377 137.811 68.0496 137.897 68.1811 137.962C68.2578 137.999 68.3257 138.028 68.3848 138.046C68.445 138.062 68.4986 138.075 68.5456 138.084L68.4091 138.675C68.3413 138.669 68.2615 138.654 68.1695 138.631C68.0765 138.609 67.9687 138.568 67.846 138.507C67.6313 138.401 67.4475 138.252 67.2947 138.059C67.144 137.868 67.0511 137.647 67.0161 137.398C66.981 137.149 67.0316 136.887 67.168 136.611L69.6764 131.533ZM70.9233 140.077C70.6187 139.926 70.3697 139.73 70.1761 139.487C69.9837 139.242 69.8687 138.97 69.8312 138.67C69.7948 138.369 69.8567 138.056 70.0169 137.732C70.1403 137.482 70.2913 137.295 70.4699 137.171C70.6486 137.046 70.8515 136.972 71.0787 136.948C71.3059 136.924 71.5535 136.939 71.8216 136.992C72.0896 137.045 72.3747 137.125 72.6768 137.231C72.9768 137.335 73.2307 137.422 73.4387 137.492C73.6489 137.564 73.8196 137.596 73.9507 137.59C74.0818 137.584 74.1788 137.517 74.2415 137.39L74.3 137.272C74.4699 136.928 74.5006 136.606 74.3921 136.308C74.2868 136.008 74.0425 135.763 73.659 135.573C73.2953 135.394 72.9589 135.327 72.6499 135.373C72.343 135.421 72.0899 135.53 71.8908 135.702L71.4344 135.227C71.6847 135.007 71.9512 134.865 72.234 134.8C72.5178 134.733 72.8025 134.725 73.088 134.776C73.3745 134.825 73.646 134.913 73.9024 135.039C74.0952 135.135 74.2832 135.259 74.4665 135.412C74.6519 135.566 74.8036 135.75 74.9216 135.964C75.0406 136.175 75.1014 136.419 75.1038 136.696C75.1073 136.97 75.0257 137.276 74.859 137.614L73.1656 141.041L72.5806 140.752L72.9751 139.954L72.939 139.936C72.7953 140.05 72.6198 140.143 72.4125 140.215C72.2052 140.288 71.9752 140.317 71.7227 140.304C71.4702 140.291 71.2037 140.215 70.9233 140.077ZM71.2668 139.58C71.5779 139.734 71.8815 139.798 72.1775 139.772C72.4736 139.747 72.7393 139.651 72.9745 139.483C73.2131 139.315 73.4005 139.093 73.5369 138.817L73.8973 138.087C73.833 138.107 73.7412 138.108 73.6219 138.09C73.5049 138.073 73.3731 138.045 73.2264 138.005C73.0831 137.964 72.9413 137.92 72.8012 137.873C72.6611 137.825 72.5352 137.782 72.4235 137.743C72.1214 137.638 71.8511 137.572 71.6127 137.547C71.3744 137.522 71.169 137.549 70.9967 137.627C70.8255 137.703 70.6896 137.843 70.5889 138.047C70.4374 138.354 70.4295 138.646 70.5652 138.923C70.7021 139.197 70.9359 139.417 71.2668 139.58ZM79.204 137.744L78.9523 138.254L76.5433 137.064L76.7949 136.554L79.204 137.744ZM78.145 135.717L78.7333 136.007L76.2931 140.947C76.1892 141.157 76.1436 141.34 76.1564 141.497C76.1702 141.651 76.2228 141.782 76.314 141.889C76.4063 141.995 76.5182 142.08 76.6497 142.145C76.7263 142.183 76.7942 142.211 76.8533 142.229C76.9135 142.246 76.9671 142.258 77.0142 142.268L76.8777 142.859C76.8099 142.853 76.73 142.838 76.6381 142.814C76.5451 142.793 76.4373 142.752 76.3146 142.691C76.0999 142.585 75.9161 142.436 75.7632 142.243C75.6126 142.051 75.5197 141.831 75.4846 141.582C75.4496 141.333 75.5002 141.07 75.6366 140.794L78.145 135.717ZM79.9735 144.535C79.5024 144.303 79.149 143.992 78.9133 143.603C78.6786 143.211 78.5634 142.774 78.5676 142.291C78.5751 141.807 78.705 141.31 78.9572 140.799C79.2083 140.291 79.5244 139.886 79.9054 139.583C80.2898 139.28 80.7026 139.098 81.1438 139.038C81.5883 138.977 82.0286 139.054 82.4646 139.269C82.7385 139.404 82.9776 139.585 83.182 139.812C83.3874 140.036 83.5401 140.301 83.6399 140.606C83.743 140.911 83.7769 141.248 83.7415 141.617C83.7072 141.985 83.5856 142.38 83.3767 142.803L83.2338 143.092L79.29 141.143L79.5449 140.628L82.8906 142.28C83.0507 141.956 83.129 141.632 83.1252 141.309C83.1248 140.984 83.0457 140.689 82.8882 140.423C82.7328 140.158 82.5039 139.951 82.2016 139.802C81.8817 139.644 81.5579 139.59 81.2303 139.641C80.9027 139.691 80.6006 139.823 80.324 140.035C80.0496 140.249 79.8291 140.521 79.6623 140.853L79.5097 141.162C79.3117 141.563 79.2075 141.948 79.1972 142.316C79.1903 142.683 79.2744 143.012 79.4495 143.303C79.6247 143.594 79.8876 143.826 80.2381 144C80.4769 144.118 80.7046 144.184 80.9211 144.198C81.1397 144.213 81.3412 144.189 81.5256 144.125C81.7133 144.059 81.8762 143.967 82.0145 143.847L82.4806 144.302C82.2989 144.477 82.0761 144.61 81.812 144.704C81.5502 144.798 81.2618 144.835 80.947 144.816C80.6354 144.796 80.3109 144.702 79.9735 144.535Z" fill="black"/>
</svg>
